<?xml version="1.0" encoding="UTF-8"?>
<svg id="Layer_1" data-name="Layer 1" xmlns="http://www.w3.org/2000/svg" viewBox="0 0 512 300">
  <defs>
    <style>
      .cls-1 {
        fill: #fff;
      }

      .cls-2 {
        fill: #da1f27;
      }

      .cls-3 {
        fill: #da2028;
      }

      .cls-4 {
        fill: #231f20;
      }
    </style>
  </defs>
  <g>
    <path class="cls-4" d="m192.03,115.8h-20.63v21.62h5.65v-4.92h14.98c3.59,0,6.51-2.91,6.51-6.5v-3.69c-.01-3.59-2.91-6.51-6.51-6.51Zm.87,10.2c-.01.49-.36.84-.87.85h-14.98v-5.39h14.98c.51.01.86.37.87.85v3.69Z"/>
    <polygon class="cls-4" points="202.09 137.42 228.02 137.42 228.02 131.77 207.74 131.77 207.74 129.44 225.56 129.44 225.56 123.79 207.74 123.79 207.74 121.46 228.02 121.46 228.02 115.8 202.09 115.8 202.09 137.42"/>
    <polygon class="cls-4" points="231.89 137.42 257.82 137.42 257.82 131.77 237.54 131.77 237.54 129.44 255.36 129.44 255.36 123.79 237.54 123.79 237.54 121.46 257.82 121.46 257.82 115.8 231.89 115.8 231.89 137.42"/>
    <path class="cls-4" d="m282.95,115.8h-21.25v21.62h21.25c3.58,0,6.51-2.91,6.51-6.51v-8.6c0-3.59-2.92-6.51-6.51-6.51Zm.84,15.11c0,.26-.09.47-.24.62-.14.14-.34.23-.6.24h-15.61v-10.31h15.61c.51.02.83.35.84.85v8.6Z"/>
    <polygon class="cls-4" points="314.04 115.8 306.06 122.98 298.1 115.8 289.6 115.8 303.24 128.01 303.24 137.42 308.89 137.42 308.89 128.01 322.52 115.8 314.04 115.8"/>
  </g>
  <g>
    <path class="cls-4" d="m99.88,159.31v-2.46c0-3.59-2.93-6.51-6.52-6.51h-20.63v21.63h5.65v-6.14h13.06l3.26,6.14h6.24l-3.87-7.3c1.75-1.21,2.81-3.21,2.81-5.36Zm-5.65,0c0,.5-.37.87-.87.87h-14.98v-4.18h14.98c.5,0,.87.37.87.85v2.46Z"/>
    <polygon class="cls-4" points="104.03 171.97 129.96 171.97 129.96 166.32 109.68 166.32 109.68 163.99 127.5 163.99 127.5 158.34 109.68 158.34 109.68 156.01 129.96 156.01 129.96 150.34 104.03 150.34 104.03 171.97"/>
    <path class="cls-4" d="m154.93,150.34h-14.74c-3.59,0-6.51,2.92-6.51,6.51v8.6c0,3.59,2.92,6.51,6.51,6.51h14.74c3.59,0,6.51-2.92,6.51-6.51v-1.6h-5.66v1.6c0,.49-.37.86-.85.86h-14.74c-.49,0-.86-.37-.86-.86v-8.6c0-.48.37-.85.86-.85h14.74c.48,0,.85.37.85.85v1.59h5.66v-1.59c0-3.59-2.92-6.51-6.51-6.51Z"/>
    <path class="cls-4" d="m187.35,150.35h-15.97c-3.6,0-6.51,2.92-6.51,6.5v8.61c0,3.59,2.91,6.51,6.51,6.51h15.97c3.59,0,6.51-2.92,6.51-6.51v-8.61c0-3.58-2.91-6.5-6.51-6.5Zm.85,15.11c-.01.51-.34.84-.85.85h-15.97c-.51,0-.84-.34-.86-.85v-8.61c0-.49.36-.84.86-.85h15.97c.5.01.85.36.85.85v8.61Z"/>
    <polygon class="cls-4" points="211.63 165.36 201.61 150.34 194.82 150.34 209.24 171.97 214.02 171.97 228.43 150.34 221.63 150.34 211.63 165.36"/>
    <polygon class="cls-4" points="231.71 171.97 257.64 171.97 257.64 166.32 237.36 166.32 237.36 163.99 255.18 163.99 255.18 158.34 237.36 158.34 237.36 156.01 257.64 156.01 257.64 150.34 231.71 150.34 231.71 171.97"/>
    <path class="cls-4" d="m288.66,159.32v-2.47c0-3.58-2.94-6.5-6.52-6.5h-20.63v21.62h5.65v-6.14h13.06l3.26,6.14h6.25l-3.88-7.31c1.73-1.2,2.81-3.19,2.81-5.34Zm-5.65,0c-.01.5-.36.84-.87.86h-14.98v-4.18h14.98c.5,0,.87.37.87.85v2.47Z"/>
    <polygon class="cls-4" points="314.04 150.34 306.06 157.52 298.1 150.34 289.6 150.34 303.24 162.55 303.24 171.97 308.89 171.97 308.89 162.55 322.52 150.34 314.04 150.34"/>
  </g>
  <path d="m330.38,174.83c-.39-23.52.13-47.05,2.05-70.5,1.13,23.5.58,47.11-2.05,70.5h0Z"/>
  <path d="m428.02,152.24c-1.06-1.93-2.41-3.7-3.97-5.24-3.12-3.09-7.15-5.21-11.41-6.06-1.07-.21-2.15-.34-3.23-.41l-1.62-.03-1.55.03-6.22.12-1.12.24c-.77.01-1.55.03-2.32.05-.48-2.74-1.13-5.42-1.76-8.1-.7-2.95-2.1-5.88-4.06-8.37-3.95-4.97-10.24-8.22-16.74-8.36-.84-.04-1.53-.02-2.27-.02l-2.19.02-4.37.1c-2.92.09-5.83.21-8.75.39-5.83.38-11.66.88-17.49,1.88,5.83,1,11.66,1.5,17.49,1.88,2.92.18,5.83.3,8.75.39l4.37.1,2.19.02c.72,0,1.5,0,2.11.04,5.17.13,10.23,2.34,14.04,6.03h-21.53l7.66,14.53c8.29.22,16.58.44,24.87.57l1.12.24,6.22.12,1.55.03,1.48.08c.98.1,1.96.26,2.92.49,3.84.92,7.36,2.98,10.06,5.79.81.84,1.53,1.76,2.18,2.72l-13.31,1.52,15.14,1.73,8.43,23.89-19.5-.23-12.89-.15-.13-.9-.19-1.37c-.1-.52-.18-1.07-.32-1.59-.54-2.1-1.53-4.09-2.91-5.77-1.39-1.67-3.13-3.06-5.1-3.99-1.97-.93-4.15-1.44-6.33-1.45-4.36-.01-8.73,1.98-11.5,5.37-1.4,1.68-2.45,3.66-2.99,5.78-.12.53-.27,1.06-.32,1.61l-.11.81-.06.7-.05.62-29.18-.05-31.32.06c-20.88,0-41.76.21-62.65.32-20.88.2-41.76.41-62.65.73l-31.32.58-15.66.3-66.77.4,66.77.4,15.66.3,31.32.58c20.88.32,41.76.53,62.65.73,20.88.11,41.76.32,62.65.32l31.32.06,31.32-.05h2.15s.18-2.14.18-2.14l.23-2.76.06-.68.08-.56c.03-.38.14-.74.22-1.11.36-1.46,1.08-2.83,2.04-3.99,1.91-2.36,4.9-3.73,7.93-3.75,1.52.01,3.02.33,4.4.96,1.38.63,2.6,1.59,3.59,2.74.98,1.16,1.68,2.55,2.09,4.02.11.37.15.74.24,1.12l.21,1.37.42,2.74.28,1.87h1.86s14.78-.18,14.78-.18l24.09-.29-11.26-29.88Z"/>
  <path d="m341.25,102.46c.53.23,1.07.42,1.61.64l.81.29c.27.1.57.2.72.26,1.48.57,2.8,1.63,3.69,3.18.47.78.73,1.6,1.04,2.84.34,1.14.72,2.28,1.27,3.42.49-1.16.81-2.32,1.09-3.48.13-.59.27-1.1.32-1.85.04-.7,0-1.42-.14-2.12-.54-2.84-2.72-5.42-5.56-6.47-.39-.14-.64-.22-.91-.31l-.82-.26c-.56-.15-1.11-.32-1.67-.46-1.12-.28-2.25-.53-3.4-.72-2.3-.38-4.65-.62-7.15-.4,1.87,1.67,3.89,2.89,5.96,3.97,1.03.54,2.09,1.02,3.15,1.46Z"/>
  <g>
    <polygon class="cls-2" points="86.16 206.83 83.68 196.87 80.8 196.87 78.18 206.89 75.9 196.87 73.13 196.87 76.6 209.79 79.64 209.77 82.17 200.58 84.59 209.77 87.64 209.77 91.24 196.87 88.45 196.87 86.16 206.83"/>
    <polygon class="cls-2" points="107.13 202.17 101.6 202.17 101.6 196.87 99.02 196.87 99.02 209.77 101.6 209.77 101.6 204.28 107.13 204.28 107.13 209.77 109.71 209.77 109.71 196.87 107.13 196.87 107.13 202.17"/>
    <polygon class="cls-2" points="118.36 209.77 125.84 209.77 125.84 207.66 120.95 207.66 120.95 204.24 125.29 204.24 125.29 202.19 120.95 202.19 120.95 198.96 125.84 198.96 125.84 196.85 118.36 196.85 118.36 209.77"/>
    <polygon class="cls-2" points="142.73 205.72 136.88 196.85 134.29 196.85 134.29 209.77 136.88 209.77 136.88 200.92 142.73 209.77 145.32 209.77 145.32 196.85 142.73 196.85 142.73 205.72"/>
    <polygon class="cls-2" points="172.9 205.72 167.05 196.85 164.46 196.85 164.46 209.77 167.05 209.77 167.05 200.92 172.9 209.77 175.49 209.77 175.49 196.85 172.9 196.85 172.9 205.72"/>
    <polygon class="cls-2" points="184.14 209.77 191.62 209.77 191.62 207.66 186.73 207.66 186.73 204.24 191.07 204.24 191.07 202.19 186.73 202.19 186.73 198.96 191.62 198.96 191.62 196.85 184.14 196.85 184.14 209.77"/>
    <polygon class="cls-2" points="200.06 209.77 207.55 209.77 207.55 207.66 202.65 207.66 202.65 204.24 206.99 204.24 206.99 202.19 202.65 202.19 202.65 198.96 207.55 198.96 207.55 196.85 200.06 196.85 200.06 209.77"/>
    <path class="cls-2" d="m224.08,197.67c-1.03-.53-2.23-.8-3.58-.8h-4.51v12.9h4.51c1.35,0,2.55-.27,3.58-.8,1.02-.53,1.82-1.27,2.38-2.24.56-.97.84-2.1.84-3.39s-.28-2.43-.84-3.41c-.56-.98-1.36-1.73-2.38-2.26Zm-.53,8.79c-.74.74-1.79,1.11-3.14,1.11h-1.83v-8.52h1.83c1.35,0,2.4.38,3.14,1.14.74.75,1.11,1.8,1.11,3.15s-.37,2.38-1.11,3.12Z"/>
    <polygon class="cls-2" points="239.96 202.76 237.18 196.87 234.26 196.87 238.64 205.28 238.64 209.77 241.23 209.77 241.23 205.28 245.59 196.87 242.71 196.87 239.96 202.76"/>
    <path class="cls-2" d="m267.57,199.56c.58-.35,1.25-.53,2-.53.71,0,1.32.16,1.86.46.54.31.95.77,1.25,1.39h2.97c-.43-1.31-1.19-2.33-2.27-3.07-1.08-.74-2.35-1.11-3.79-1.11-1.23,0-2.34.28-3.33.85-.99.56-1.78,1.34-2.35,2.34-.57,1.01-.86,2.14-.86,3.41s.29,2.4.86,3.4c.57,1,1.36,1.78,2.35,2.34s2.1.84,3.33.84c1.46,0,2.72-.37,3.8-1.1,1.08-.73,1.83-1.76,2.26-3.08h-2.97c-.3.62-.71,1.08-1.25,1.4-.54.31-1.15.47-1.86.47-.75,0-1.42-.18-2-.53-.59-.35-1.04-.85-1.37-1.49-.32-.65-.49-1.4-.49-2.25s.17-1.61.49-2.25c.33-.64.78-1.14,1.37-1.49Z"/>
    <path class="cls-2" d="m287.81,196.85l-4.64,12.92h2.72l.85-2.46h5.13l.86,2.46h2.73l-4.64-12.92h-3.01Zm-.37,8.39l1.87-5.39,1.86,5.39h-3.73Z"/>
    <polygon class="cls-2" points="305.88 196.87 303.29 196.87 303.29 209.77 310.13 209.77 310.13 207.72 305.88 207.72 305.88 196.87"/>
    <polygon class="cls-2" points="320.46 196.87 317.87 196.87 317.87 209.77 324.71 209.77 324.71 207.72 320.46 207.72 320.46 196.87"/>
    <path class="cls-2" d="m350.02,202.99c-.53-.25-1.21-.5-2.05-.74-.62-.19-1.09-.35-1.43-.49-.34-.14-.63-.33-.85-.56-.23-.22-.34-.51-.34-.86,0-.49.15-.86.45-1.12s.7-.39,1.21-.39c.58,0,1.04.14,1.39.43.35.29.54.66.57,1.1h2.84c-.08-1.15-.54-2.06-1.37-2.7-.84-.65-1.92-.97-3.25-.97-.88,0-1.67.15-2.36.45s-1.23.73-1.61,1.3c-.38.57-.57,1.23-.57,2,0,.81.19,1.46.56,1.95.38.48.83.85,1.35,1.09.52.24,1.2.48,2.04.73.62.17,1.1.33,1.45.47.35.14.65.33.88.58s.35.56.35.94c0,.47-.17.85-.52,1.14-.34.29-.82.43-1.42.43s-1.06-.15-1.39-.46c-.34-.31-.53-.73-.57-1.26h-2.77c.01.79.23,1.48.65,2.05.42.58.99,1.03,1.71,1.33.72.31,1.53.47,2.43.47s1.76-.18,2.45-.53c.69-.35,1.22-.82,1.57-1.41.36-.59.54-1.24.54-1.93,0-.8-.19-1.44-.57-1.93-.38-.5-.84-.87-1.37-1.11Z"/>
    <path class="cls-2" d="m367.59,197.39c-.7-.35-1.55-.52-2.55-.52h-4.75v12.9h2.59v-4.95h2.16c1.06,0,1.94-.19,2.63-.56.7-.37,1.21-.85,1.54-1.46.32-.6.49-1.25.49-1.94,0-.76-.18-1.45-.53-2.05-.35-.6-.88-1.08-1.58-1.42Zm-1.07,4.85c-.35.32-.88.49-1.59.49h-2.05v-3.75h2.05c1.4,0,2.11.63,2.11,1.88,0,.59-.18,1.05-.52,1.38Z"/>
    <polygon class="cls-2" points="377.62 209.77 385.11 209.77 385.11 207.66 380.21 207.66 380.21 204.24 384.55 204.24 384.55 202.19 380.21 202.19 380.21 198.96 385.11 198.96 385.11 196.85 377.62 196.85 377.62 209.77"/>
    <polygon class="cls-2" points="393.55 209.77 401.03 209.77 401.03 207.66 396.14 207.66 396.14 204.24 400.48 204.24 400.48 202.19 396.14 202.19 396.14 198.96 401.03 198.96 401.03 196.85 393.55 196.85 393.55 209.77"/>
    <path class="cls-2" d="m417.56,197.67c-1.03-.53-2.22-.8-3.58-.8h-4.5v12.9h4.5c1.36,0,2.55-.27,3.58-.8,1.03-.53,1.82-1.27,2.38-2.24.56-.97.84-2.1.84-3.39s-.28-2.43-.84-3.41c-.56-.98-1.35-1.73-2.38-2.26Zm-.53,8.79c-.74.74-1.78,1.11-3.14,1.11h-1.83v-8.52h1.83c1.36,0,2.4.38,3.14,1.14.74.75,1.11,1.8,1.11,3.15s-.37,2.38-1.11,3.12Z"/>
    <polygon class="cls-2" points="436.19 196.87 433.44 202.76 430.67 196.87 427.75 196.87 432.13 205.28 432.13 209.77 434.71 209.77 434.71 205.28 439.07 196.87 436.19 196.87"/>
  </g>
  <path class="cls-1" d="m147.87,124.58c-.21,0-.41-.01-.63-.04h-.04c-.13-.03-.28-.06-.43-.09-.01,0-.03,0-.03-.01h-.03c-.15-.03-.3-.07-.46-.12l.38.09h.04l.56.12h.55s.03.01.03.01c.03.01.04.03.06.04Z"/>
  <g>
    <path class="cls-3" d="m147.24,137.67c-3.52,0-6.38-2.81-6.38-6.27v-1.26h6.15v1.26c0,.11.18.12.23.12h14.28c.08,0,.22-.02.22-.12v-1.61c0-.1-.15-.11-.22-.11h-14.28c-.18,0-.35,0-.52-.02l-.25-.03c-.12-.01-.24-.03-.37-.05-.04,0-.1-.02-.16-.03-.11,0-.2-.02-.28-.05-1.48-.26-2.56-.88-4.68-2.25l-53.25-27.61v3.28c0,.71.02,1.63-.35,2.7.13-.03.27-.04.42-.04.22,0,.43.03.61.06,1.27.26,1.92,1.71,1.71,3.79-.33,3.2-2.38,6.44-5.66,6.44h-.14c-2.72-.01-4.27-1.4-5.1-2.56-1.45-2.05-1.61-4.78-1.03-6.42.66-1.83,1.7-2.56,2.39-3.04.12-.08.39-.27.43-.32-.02-.14-.01-1.54,0-3.32v-.8c.04-2.2.07-4.65.07-5.64,0-1.37.7-2.62,1.87-3.34.63-.39,1.35-.59,2.07-.59.6,0,1.18.13,1.72.4l51.38,28.53c.12.07.21.13.32.21l.15.11c.58.39,1.53,1.03,2.65,1.72l1.1.65c.66.39,1.38.76,2.12,1.11.24.12.47.22.71.31.24.1.46.19.69.26.2.08.38.14.56.2l.39.08.11.02.44.09h4.78s9.38,0,9.38,0c1.03,0,2.04.25,2.92.71h.04l.11.1c.1.04.25.12.39.23.46.29.76.53,1.03.82,1.21,1.18,1.87,2.74,1.87,4.4v1.61c0,3.46-2.86,6.27-6.38,6.27h-14.28Zm-63.7-27.73s0,.04.02.09c.03.13.17.36.43.43.04,0,.08.01.13.01.31,0,.66-.21,1-.59.68-.75.84-1.45.91-2.05-.63.72-1.47,1.43-2.5,2.1Z"/>
    <path class="cls-1" d="m85.02,90.1c.55,0,1.1.12,1.61.38l51.37,28.52c.08.05.18.11.29.19l.16.11c.58.39,1.54,1.03,2.66,1.73.36.21.73.43,1.11.65.72.42,1.46.8,2.14,1.12.24.12.48.22.72.32.24.1.47.19.7.27.19.08.38.14.57.2l.41.09.12.02.43.09h14.21c1.01,0,1.99.24,2.86.71.02,0,.03.01.04.02.15.08.29.16.43.26.03.01.06.03.09.05.37.24.65.47.91.74h.01c1.15,1.13,1.79,2.63,1.79,4.23v1.61c0,3.32-2.75,6.02-6.13,6.02h-14.28c-3.38,0-6.13-2.7-6.13-6.02v-1.01h5.65v1.01c0,.27.25.37.48.37h14.28c.23,0,.47-.1.47-.37v-1.61c0-.33-.36-.36-.47-.36h-14.28c-.17,0-.33,0-.49-.02l-.25-.03c-.09-.01-.21-.02-.34-.05-.09-.01-.17-.03-.23-.04-.06,0-.13-.01-.19-.03-1.48-.26-2.56-.89-4.62-2.22l-53.64-27.81v3.69c.01.86.01,1.94-.55,3.17.27-.2.58-.26.87-.26.21,0,.4.03.57.06,1.12.23,1.7,1.57,1.5,3.52-.32,3.06-2.25,6.21-5.41,6.21-.04,0-.09,0-.13,0-2.62,0-4.11-1.34-4.9-2.45-1.39-1.97-1.56-4.61-1-6.19.63-1.76,1.64-2.46,2.3-2.92.47-.33.51-.38.51-.48-.01-.22.01-2.08.03-4.16.03-2.2.06-4.65.06-5.64,0-1.29.66-2.46,1.75-3.13.6-.37,1.27-.56,1.94-.56m-.89,20.64c.37,0,.79-.23,1.19-.67.85-.94.94-1.8,1.01-2.5.02-.2.04-.4.08-.59-.6.89-1.56,1.83-3.04,2.79,0,0-.1.1-.05.33s.26.52.61.62c.07.02.13.02.2.02m.89-21.14v.5s0-.5,0-.5c-.77,0-1.53.22-2.2.63-1.24.77-1.99,2.09-1.99,3.56,0,.81-.02,2.75-.06,5.63v.82c-.02,1.7-.03,2.79-.03,3.21-.06.05-.16.12-.3.21-.68.47-1.8,1.26-2.48,3.16-.6,1.7-.43,4.53,1.06,6.65.86,1.21,2.48,2.65,5.31,2.66h.14c3.42,0,5.56-3.35,5.9-6.66.23-2.22-.5-3.77-1.9-4.06-.19-.03-.42-.07-.67-.07-.02,0-.05,0-.07,0,.26-.96.25-1.81.25-2.42v-2.86s52.91,27.43,52.91,27.43c2.09,1.35,3.19,1.99,4.73,2.26.08.02.17.04.25.04h.02c.05.01.11.03.18.03.12.03.24.04.33.05l.15.02h-5.94v1.51c0,3.6,2.97,6.52,6.63,6.52h14.28c3.66,0,6.63-2.92,6.63-6.52v-1.61c0-1.73-.69-3.36-1.94-4.58-.29-.3-.6-.55-1-.81-.03-.02-.07-.04-.12-.07-.13-.09-.26-.16-.37-.23l-.09-.09h-.1c-.91-.48-1.95-.73-3.01-.73h-14.16l-.38-.08-.14-.02-.38-.09c-.13-.04-.31-.1-.48-.17-.25-.09-.47-.17-.7-.27-.23-.1-.46-.19-.69-.31-.75-.35-1.46-.72-2.11-1.1-.22-.13-.44-.26-.66-.39l-.45-.26c-1.09-.68-2.02-1.3-2.63-1.71l-.16-.11c-.09-.07-.19-.13-.27-.18h-.01s-.05-.04-.05-.04l-51.37-28.52c-.6-.3-1.21-.44-1.85-.44h0Zm-1.18,20.46c.68-.45,1.27-.92,1.77-1.39-.12.34-.32.69-.66,1.07-.29.32-.58.51-.82.51-.03,0-.06,0-.09,0-.1-.03-.17-.11-.21-.17h0Zm63.42,19.88h14.23v1.34h-14.23v-1.34h0Z"/>
  </g>
  <path class="cls-4" d="m161.52,115.09h-14.28c-2.06.4-4.52,1.59-4.49,3.59v.08c.01.22.03.43.05.62l.03.18c.19,1.04.68,1.76,1.26,2.26,0,.01.02.02.03.03,1.1.96,2.49,1.12,2.64,1.14h.01v-.03s-.01-1.85-.01-1.85c0-.33.37-.36.48-.36h14.28c.11,0,.47.03.47.36v1.33h5.66v-1.33c0-3.32-2.75-6.02-6.13-6.02Z"/>
</svg>