<svg xmlns="http://www.w3.org/2000/svg" xmlns:xlink="http://www.w3.org/1999/xlink" width="600" zoomAndPan="magnify" viewBox="0 0 450 142.499996" height="190" preserveAspectRatio="xMidYMid meet" version="1.0"><defs><clipPath id="a30de1405b"><path d="M 29 1.304688 L 133 1.304688 L 133 57 L 29 57 Z M 29 1.304688 " clip-rule="nonzero"/></clipPath></defs><path fill="#231f20" d="M 159.789062 31.402344 L 136.261719 31.402344 L 136.261719 56.074219 L 142.703125 56.074219 L 142.703125 50.457031 L 159.789062 50.457031 C 163.882812 50.457031 167.214844 47.136719 167.214844 43.042969 L 167.214844 38.832031 C 167.203125 34.734375 163.894531 31.402344 159.789062 31.402344 Z M 160.78125 43.042969 C 160.769531 43.601562 160.371094 44 159.789062 44.011719 L 142.703125 44.011719 L 142.703125 37.863281 L 159.789062 37.863281 C 160.371094 37.875 160.769531 38.285156 160.78125 38.832031 Z M 160.78125 43.042969 " fill-opacity="1" fill-rule="nonzero"/><path fill="#231f20" d="M 171.265625 56.074219 L 200.839844 56.074219 L 200.839844 49.625 L 177.707031 49.625 L 177.707031 46.96875 L 198.03125 46.96875 L 198.03125 40.519531 L 177.707031 40.519531 L 177.707031 37.863281 L 200.839844 37.863281 L 200.839844 31.402344 L 171.265625 31.402344 Z M 171.265625 56.074219 " fill-opacity="1" fill-rule="nonzero"/><path fill="#231f20" d="M 205.253906 56.074219 L 234.828125 56.074219 L 234.828125 49.625 L 211.695312 49.625 L 211.695312 46.96875 L 232.019531 46.96875 L 232.019531 40.519531 L 211.695312 40.519531 L 211.695312 37.863281 L 234.828125 37.863281 L 234.828125 31.402344 L 205.253906 31.402344 Z M 205.253906 56.074219 " fill-opacity="1" fill-rule="nonzero"/><path fill="#231f20" d="M 263.488281 31.402344 L 239.253906 31.402344 L 239.253906 56.074219 L 263.488281 56.074219 C 267.570312 56.074219 270.914062 52.753906 270.914062 48.644531 L 270.914062 38.832031 C 270.914062 34.734375 267.582031 31.402344 263.488281 31.402344 Z M 264.445312 48.644531 C 264.445312 48.941406 264.34375 49.179688 264.171875 49.351562 C 264.015625 49.511719 263.785156 49.613281 263.488281 49.625 L 245.683594 49.625 L 245.683594 37.863281 L 263.488281 37.863281 C 264.070312 37.886719 264.4375 38.261719 264.445312 38.832031 Z M 264.445312 48.644531 " fill-opacity="1" fill-rule="nonzero"/><path fill="#231f20" d="M 298.949219 31.402344 L 289.847656 39.597656 L 280.769531 31.402344 L 271.074219 31.402344 L 286.628906 45.335938 L 286.628906 56.074219 L 293.074219 56.074219 L 293.074219 45.335938 L 308.621094 31.402344 Z M 298.949219 31.402344 " fill-opacity="1" fill-rule="nonzero"/><path fill="#231f20" d="M 54.6875 81.050781 L 54.6875 78.242188 C 54.6875 74.144531 51.347656 70.8125 47.25 70.8125 L 23.722656 70.8125 L 23.722656 95.492188 L 30.167969 95.492188 L 30.167969 88.488281 L 45.0625 88.488281 L 48.78125 95.492188 L 55.898438 95.492188 L 51.484375 87.164062 C 53.480469 85.785156 54.6875 83.503906 54.6875 81.050781 Z M 48.242188 81.050781 C 48.242188 81.621094 47.820312 82.042969 47.25 82.042969 L 30.167969 82.042969 L 30.167969 77.273438 L 47.25 77.273438 C 47.820312 77.273438 48.242188 77.695312 48.242188 78.242188 Z M 48.242188 81.050781 " fill-opacity="1" fill-rule="nonzero"/><path fill="#231f20" d="M 59.421875 95.492188 L 88.996094 95.492188 L 88.996094 89.046875 L 65.867188 89.046875 L 65.867188 86.390625 L 86.191406 86.390625 L 86.191406 79.941406 L 65.867188 79.941406 L 65.867188 77.285156 L 88.996094 77.285156 L 88.996094 70.8125 L 59.421875 70.8125 Z M 59.421875 95.492188 " fill-opacity="1" fill-rule="nonzero"/><path fill="#231f20" d="M 117.476562 70.8125 L 100.664062 70.8125 C 96.570312 70.8125 93.238281 74.144531 93.238281 78.242188 L 93.238281 88.054688 C 93.238281 92.152344 96.570312 95.484375 100.664062 95.484375 L 117.476562 95.484375 C 121.570312 95.484375 124.902344 92.152344 124.902344 88.054688 L 124.902344 86.230469 L 118.445312 86.230469 L 118.445312 88.054688 C 118.445312 88.613281 118.023438 89.035156 117.476562 89.035156 L 100.664062 89.035156 C 100.105469 89.035156 99.683594 88.613281 99.683594 88.054688 L 99.683594 78.242188 C 99.683594 77.695312 100.105469 77.273438 100.664062 77.273438 L 117.476562 77.273438 C 118.023438 77.273438 118.445312 77.695312 118.445312 78.242188 L 118.445312 80.054688 L 124.902344 80.054688 L 124.902344 78.242188 C 124.902344 74.144531 121.570312 70.8125 117.476562 70.8125 Z M 117.476562 70.8125 " fill-opacity="1" fill-rule="nonzero"/><path fill="#231f20" d="M 154.453125 70.824219 L 136.238281 70.824219 C 132.132812 70.824219 128.8125 74.15625 128.8125 78.242188 L 128.8125 88.066406 C 128.8125 92.164062 132.132812 95.492188 136.238281 95.492188 L 154.453125 95.492188 C 158.546875 95.492188 161.878906 92.164062 161.878906 88.066406 L 161.878906 78.242188 C 161.878906 74.15625 158.558594 70.824219 154.453125 70.824219 Z M 155.421875 88.066406 C 155.410156 88.648438 155.035156 89.023438 154.453125 89.035156 L 136.238281 89.035156 C 135.65625 89.035156 135.28125 88.648438 135.257812 88.066406 L 135.257812 78.242188 C 135.257812 77.683594 135.667969 77.285156 136.238281 77.273438 L 154.453125 77.273438 C 155.023438 77.285156 155.421875 77.683594 155.421875 78.242188 Z M 155.421875 88.066406 " fill-opacity="1" fill-rule="nonzero"/><path fill="#231f20" d="M 182.144531 87.953125 L 170.714844 70.8125 L 162.972656 70.8125 L 179.417969 95.492188 L 184.871094 95.492188 L 201.304688 70.8125 L 193.550781 70.8125 Z M 182.144531 87.953125 " fill-opacity="1" fill-rule="nonzero"/><path fill="#231f20" d="M 205.046875 95.492188 L 234.621094 95.492188 L 234.621094 89.046875 L 211.492188 89.046875 L 211.492188 86.390625 L 231.816406 86.390625 L 231.816406 79.941406 L 211.492188 79.941406 L 211.492188 77.285156 L 234.621094 77.285156 L 234.621094 70.8125 L 205.046875 70.8125 Z M 205.046875 95.492188 " fill-opacity="1" fill-rule="nonzero"/><path fill="#231f20" d="M 270 81.058594 L 270 78.242188 C 270 74.15625 266.648438 70.824219 262.566406 70.824219 L 239.035156 70.824219 L 239.035156 95.492188 L 245.480469 95.492188 L 245.480469 88.488281 L 260.375 88.488281 L 264.09375 95.492188 L 271.222656 95.492188 L 266.796875 87.152344 C 268.769531 85.785156 270 83.511719 270 81.058594 Z M 263.558594 81.058594 C 263.546875 81.628906 263.148438 82.019531 262.566406 82.042969 L 245.480469 82.042969 L 245.480469 77.273438 L 262.566406 77.273438 C 263.136719 77.273438 263.558594 77.695312 263.558594 78.242188 Z M 263.558594 81.058594 " fill-opacity="1" fill-rule="nonzero"/><path fill="#231f20" d="M 298.949219 70.8125 L 289.847656 79.007812 L 280.769531 70.8125 L 271.074219 70.8125 L 286.628906 84.746094 L 286.628906 95.492188 L 293.074219 95.492188 L 293.074219 84.746094 L 308.621094 70.8125 Z M 298.949219 70.8125 " fill-opacity="1" fill-rule="nonzero"/><path fill="#000000" d="M 317.585938 98.757812 C 317.140625 71.921875 317.734375 45.074219 319.921875 18.316406 C 321.210938 45.128906 320.585938 72.070312 317.585938 98.757812 Z M 317.585938 98.757812 " fill-opacity="1" fill-rule="nonzero"/><path fill="#000000" d="M 428.949219 72.980469 C 427.738281 70.78125 426.199219 68.761719 424.421875 67.003906 C 420.863281 63.476562 416.265625 61.058594 411.40625 60.089844 C 410.1875 59.847656 408.953125 59.699219 407.722656 59.621094 L 405.875 59.585938 L 404.109375 59.621094 L 397.011719 59.757812 L 395.734375 60.03125 C 394.859375 60.042969 393.96875 60.066406 393.089844 60.089844 C 392.542969 56.960938 391.800781 53.90625 391.082031 50.847656 C 390.285156 47.480469 388.6875 44.136719 386.453125 41.296875 C 381.945312 35.625 374.773438 31.917969 367.359375 31.757812 C 366.402344 31.710938 365.613281 31.734375 364.769531 31.734375 L 362.273438 31.757812 L 357.289062 31.871094 C 353.957031 31.976562 350.636719 32.113281 347.308594 32.316406 C 340.660156 32.75 334.007812 33.320312 327.359375 34.460938 C 334.007812 35.601562 340.660156 36.171875 347.308594 36.605469 C 350.636719 36.8125 353.957031 36.949219 357.289062 37.050781 L 362.273438 37.167969 L 364.769531 37.1875 C 365.589844 37.1875 366.480469 37.1875 367.175781 37.234375 C 373.074219 37.382812 378.84375 39.90625 383.191406 44.113281 L 358.632812 44.113281 L 367.371094 60.695312 C 376.824219 60.945312 386.28125 61.195312 395.734375 61.34375 L 397.011719 61.617188 L 404.109375 61.753906 L 405.875 61.789062 L 407.5625 61.878906 C 408.679688 61.996094 409.800781 62.175781 410.894531 62.4375 C 415.273438 63.488281 419.289062 65.839844 422.367188 69.046875 C 423.292969 70.003906 424.113281 71.054688 424.855469 72.148438 L 409.671875 73.882812 L 426.941406 75.855469 L 436.554688 103.117188 L 414.316406 102.851562 L 399.613281 102.683594 L 399.464844 101.65625 L 399.25 100.09375 C 399.136719 99.5 399.042969 98.871094 398.882812 98.277344 C 398.269531 95.882812 397.140625 93.609375 395.566406 91.695312 C 393.980469 89.789062 391.996094 88.203125 389.75 87.140625 C 387.5 86.082031 385.015625 85.5 382.527344 85.488281 C 377.554688 85.476562 372.570312 87.746094 369.410156 91.613281 C 367.816406 93.53125 366.617188 95.789062 366 98.210938 C 365.863281 98.8125 365.695312 99.417969 365.636719 100.046875 L 365.511719 100.96875 L 365.441406 101.769531 L 365.386719 102.476562 L 332.105469 102.417969 L 296.382812 102.488281 C 272.566406 102.488281 248.753906 102.726562 224.925781 102.851562 C 201.113281 103.082031 177.296875 103.320312 153.472656 103.6875 L 117.75 104.347656 L 99.886719 104.691406 L 23.734375 105.148438 L 99.886719 105.601562 L 117.75 105.945312 L 153.472656 106.605469 C 177.285156 106.972656 201.101562 107.210938 224.925781 107.441406 C 248.742188 107.566406 272.554688 107.804688 296.382812 107.804688 L 332.105469 107.875 L 367.828125 107.816406 L 370.277344 107.816406 C 370.277344 107.816406 370.484375 105.375 370.484375 105.375 L 370.746094 102.226562 L 370.816406 101.449219 L 370.90625 100.8125 C 370.941406 100.378906 371.066406 99.964844 371.15625 99.542969 C 371.566406 97.878906 372.390625 96.316406 373.484375 94.992188 C 375.664062 92.300781 379.074219 90.734375 382.527344 90.714844 C 384.261719 90.722656 385.972656 91.089844 387.546875 91.808594 C 389.121094 92.527344 390.511719 93.621094 391.640625 94.933594 C 392.757812 96.257812 393.558594 97.84375 394.023438 99.523438 C 394.152344 99.945312 394.195312 100.367188 394.300781 100.800781 L 395.015625 105.488281 L 395.335938 107.621094 L 397.457031 107.621094 C 397.457031 107.621094 414.316406 107.417969 414.316406 107.417969 L 441.792969 107.085938 L 428.949219 72.992188 Z M 428.949219 72.980469 " fill-opacity="1" fill-rule="nonzero"/><path fill="#000000" d="M 329.984375 16.183594 C 330.585938 16.445312 331.203125 16.664062 331.820312 16.914062 L 332.742188 17.246094 C 333.050781 17.359375 333.394531 17.472656 333.566406 17.542969 C 335.253906 18.191406 336.757812 19.402344 337.773438 21.167969 C 338.308594 22.058594 338.605469 22.996094 338.960938 24.410156 C 339.347656 25.710938 339.78125 27.011719 340.40625 28.3125 C 340.964844 26.988281 341.332031 25.664062 341.652344 24.339844 C 341.800781 23.667969 341.960938 23.085938 342.015625 22.230469 C 342.0625 21.433594 342.015625 20.609375 341.855469 19.8125 C 341.242188 16.570312 338.753906 13.628906 335.515625 12.429688 C 335.070312 12.269531 334.785156 12.179688 334.476562 12.074219 L 333.542969 11.777344 C 332.902344 11.609375 332.277344 11.414062 331.636719 11.253906 C 330.359375 10.933594 329.070312 10.648438 327.757812 10.433594 C 325.136719 10 322.457031 9.726562 319.605469 9.976562 C 321.738281 11.882812 324.039062 13.273438 326.402344 14.507812 C 327.578125 15.121094 328.785156 15.667969 329.996094 16.171875 Z M 329.984375 16.183594 " fill-opacity="1" fill-rule="nonzero"/><path fill="#da1f27" d="M 39.039062 135.269531 L 36.210938 123.90625 L 32.925781 123.90625 L 29.9375 135.335938 L 27.335938 123.90625 L 24.179688 123.90625 L 28.136719 138.644531 L 31.601562 138.625 L 34.488281 128.136719 L 37.25 138.625 L 40.726562 138.625 L 44.832031 123.90625 L 41.652344 123.90625 Z M 39.039062 135.269531 " fill-opacity="1" fill-rule="nonzero"/><path fill="#da1f27" d="M 62.957031 129.953125 L 56.648438 129.953125 L 56.648438 123.90625 L 53.707031 123.90625 L 53.707031 138.625 L 56.648438 138.625 L 56.648438 132.359375 L 62.957031 132.359375 L 62.957031 138.625 L 65.898438 138.625 L 65.898438 123.90625 L 62.957031 123.90625 Z M 62.957031 129.953125 " fill-opacity="1" fill-rule="nonzero"/><path fill="#da1f27" d="M 75.765625 138.625 L 84.296875 138.625 L 84.296875 136.214844 L 78.71875 136.214844 L 78.71875 132.3125 L 83.667969 132.3125 L 83.667969 129.976562 L 78.71875 129.976562 L 78.71875 126.289062 L 84.296875 126.289062 L 84.296875 123.882812 L 75.765625 123.882812 Z M 75.765625 138.625 " fill-opacity="1" fill-rule="nonzero"/><path fill="#da1f27" d="M 103.5625 134.003906 L 96.886719 123.882812 L 93.933594 123.882812 L 93.933594 138.625 L 96.886719 138.625 L 96.886719 128.527344 L 103.5625 138.625 L 106.515625 138.625 L 106.515625 123.882812 L 103.5625 123.882812 Z M 103.5625 134.003906 " fill-opacity="1" fill-rule="nonzero"/><path fill="#da1f27" d="M 137.972656 134.003906 L 131.300781 123.882812 L 128.34375 123.882812 L 128.34375 138.625 L 131.300781 138.625 L 131.300781 128.527344 L 137.972656 138.625 L 140.925781 138.625 L 140.925781 123.882812 L 137.972656 123.882812 Z M 137.972656 134.003906 " fill-opacity="1" fill-rule="nonzero"/><path fill="#da1f27" d="M 150.792969 138.625 L 159.324219 138.625 L 159.324219 136.214844 L 153.746094 136.214844 L 153.746094 132.3125 L 158.695312 132.3125 L 158.695312 129.976562 L 153.746094 129.976562 L 153.746094 126.289062 L 159.324219 126.289062 L 159.324219 123.882812 L 150.792969 123.882812 Z M 150.792969 138.625 " fill-opacity="1" fill-rule="nonzero"/><path fill="#da1f27" d="M 168.949219 138.625 L 177.492188 138.625 L 177.492188 136.214844 L 171.902344 136.214844 L 171.902344 132.3125 L 176.851562 132.3125 L 176.851562 129.976562 L 171.902344 129.976562 L 171.902344 126.289062 L 177.492188 126.289062 L 177.492188 123.882812 L 168.949219 123.882812 Z M 168.949219 138.625 " fill-opacity="1" fill-rule="nonzero"/><path fill="#da1f27" d="M 196.34375 124.816406 C 195.171875 124.210938 193.800781 123.90625 192.261719 123.90625 L 187.117188 123.90625 L 187.117188 138.625 L 192.261719 138.625 C 193.800781 138.625 195.171875 138.316406 196.34375 137.710938 C 197.507812 137.105469 198.421875 136.261719 199.058594 135.15625 C 199.699219 134.046875 200.015625 132.757812 200.015625 131.285156 C 200.015625 129.816406 199.699219 128.515625 199.058594 127.394531 C 198.421875 126.277344 197.507812 125.421875 196.34375 124.816406 Z M 195.742188 134.847656 C 194.894531 135.691406 193.699219 136.113281 192.160156 136.113281 L 190.070312 136.113281 L 190.070312 126.390625 L 192.160156 126.390625 C 193.699219 126.390625 194.894531 126.824219 195.742188 127.691406 C 196.585938 128.546875 197.007812 129.746094 197.007812 131.285156 C 197.007812 132.828125 196.585938 134.003906 195.742188 134.847656 Z M 195.742188 134.847656 " fill-opacity="1" fill-rule="nonzero"/><path fill="#da1f27" d="M 214.457031 130.625 L 211.285156 123.90625 L 207.957031 123.90625 L 212.953125 133.5 L 212.953125 138.625 L 215.90625 138.625 L 215.90625 133.5 L 220.878906 123.90625 L 217.59375 123.90625 Z M 214.457031 130.625 " fill-opacity="1" fill-rule="nonzero"/><path fill="#da1f27" d="M 245.949219 126.972656 C 246.609375 126.574219 247.375 126.371094 248.226562 126.371094 C 249.039062 126.371094 249.734375 126.550781 250.351562 126.894531 C 250.964844 127.246094 251.433594 127.773438 251.777344 128.480469 L 255.164062 128.480469 C 254.671875 126.984375 253.804688 125.820312 252.574219 124.976562 C 251.34375 124.132812 249.894531 123.710938 248.25 123.710938 C 246.847656 123.710938 245.582031 124.03125 244.453125 124.679688 C 243.324219 125.320312 242.421875 126.210938 241.773438 127.351562 C 241.121094 128.503906 240.792969 129.792969 240.792969 131.242188 C 240.792969 132.691406 241.121094 133.980469 241.773438 135.121094 C 242.421875 136.261719 243.324219 137.152344 244.453125 137.789062 C 245.582031 138.429688 246.847656 138.75 248.25 138.75 C 249.917969 138.75 251.355469 138.328125 252.585938 137.492188 C 253.816406 136.660156 254.671875 135.484375 255.164062 133.980469 L 251.777344 133.980469 C 251.433594 134.6875 250.964844 135.210938 250.351562 135.578125 C 249.734375 135.929688 249.039062 136.113281 248.226562 136.113281 C 247.375 136.113281 246.609375 135.90625 245.949219 135.507812 C 245.273438 135.109375 244.761719 134.539062 244.386719 133.808594 C 244.019531 133.066406 243.824219 132.210938 243.824219 131.242188 C 243.824219 130.269531 244.019531 129.40625 244.386719 128.675781 C 244.761719 127.945312 245.273438 127.375 245.949219 126.972656 Z M 245.949219 126.972656 " fill-opacity="1" fill-rule="nonzero"/><path fill="#da1f27" d="M 269.03125 123.882812 L 263.738281 138.625 L 266.84375 138.625 L 267.8125 135.816406 L 273.664062 135.816406 L 274.644531 138.625 L 277.757812 138.625 L 272.464844 123.882812 Z M 268.609375 133.453125 L 270.742188 127.304688 L 272.863281 133.453125 Z M 268.609375 133.453125 " fill-opacity="1" fill-rule="nonzero"/><path fill="#da1f27" d="M 289.640625 123.90625 L 286.6875 123.90625 L 286.6875 138.625 L 294.488281 138.625 L 294.488281 136.285156 L 289.640625 136.285156 Z M 289.640625 123.90625 " fill-opacity="1" fill-rule="nonzero"/><path fill="#da1f27" d="M 306.269531 123.90625 L 303.316406 123.90625 L 303.316406 138.625 L 311.117188 138.625 L 311.117188 136.285156 L 306.269531 136.285156 Z M 306.269531 123.90625 " fill-opacity="1" fill-rule="nonzero"/><path fill="#da1f27" d="M 339.984375 130.886719 C 339.382812 130.601562 338.605469 130.316406 337.648438 130.042969 C 336.941406 129.828125 336.40625 129.644531 336.015625 129.484375 C 335.628906 129.324219 335.296875 129.109375 335.046875 128.84375 C 334.785156 128.59375 334.660156 128.261719 334.660156 127.863281 C 334.660156 127.304688 334.832031 126.882812 335.171875 126.585938 C 335.515625 126.289062 335.972656 126.140625 336.554688 126.140625 C 337.214844 126.140625 337.738281 126.300781 338.136719 126.632812 C 338.539062 126.960938 338.753906 127.386719 338.789062 127.886719 L 342.027344 127.886719 C 341.9375 126.574219 341.410156 125.535156 340.464844 124.804688 C 339.507812 124.066406 338.273438 123.699219 336.757812 123.699219 C 335.753906 123.699219 334.851562 123.871094 334.066406 124.210938 C 333.28125 124.554688 332.664062 125.046875 332.230469 125.695312 C 331.796875 126.347656 331.578125 127.097656 331.578125 127.976562 C 331.578125 128.902344 331.796875 129.644531 332.21875 130.203125 C 332.652344 130.75 333.164062 131.171875 333.757812 131.445312 C 334.351562 131.71875 335.128906 131.996094 336.085938 132.28125 C 336.792969 132.472656 337.339844 132.65625 337.738281 132.816406 C 338.136719 132.976562 338.480469 133.191406 338.742188 133.476562 C 339.003906 133.761719 339.140625 134.117188 339.140625 134.550781 C 339.140625 135.085938 338.949219 135.519531 338.550781 135.851562 C 338.160156 136.183594 337.613281 136.339844 336.929688 136.339844 C 336.246094 136.339844 335.71875 136.171875 335.34375 135.816406 C 334.957031 135.464844 334.738281 134.984375 334.695312 134.378906 L 331.535156 134.378906 C 331.546875 135.28125 331.796875 136.066406 332.277344 136.71875 C 332.753906 137.378906 333.40625 137.894531 334.226562 138.234375 C 335.046875 138.589844 335.972656 138.773438 336.996094 138.773438 C 338.023438 138.773438 339.003906 138.566406 339.792969 138.167969 C 340.578125 137.769531 341.183594 137.230469 341.582031 136.558594 C 341.992188 135.886719 342.199219 135.144531 342.199219 134.355469 C 342.199219 133.445312 341.980469 132.714844 341.546875 132.152344 C 341.113281 131.582031 340.589844 131.160156 339.984375 130.886719 Z M 339.984375 130.886719 " fill-opacity="1" fill-rule="nonzero"/><path fill="#da1f27" d="M 360.023438 124.5 C 359.226562 124.097656 358.257812 123.90625 357.117188 123.90625 L 351.699219 123.90625 L 351.699219 138.625 L 354.652344 138.625 L 354.652344 132.976562 L 357.117188 132.976562 C 358.324219 132.976562 359.328125 132.757812 360.117188 132.335938 C 360.914062 131.914062 361.496094 131.367188 361.875 130.671875 C 362.238281 129.984375 362.433594 129.246094 362.433594 128.457031 C 362.433594 127.589844 362.226562 126.804688 361.828125 126.117188 C 361.429688 125.433594 360.824219 124.886719 360.027344 124.496094 Z M 358.804688 130.03125 C 358.40625 130.398438 357.800781 130.589844 356.992188 130.589844 L 354.652344 130.589844 L 354.652344 126.3125 L 356.992188 126.3125 C 358.589844 126.3125 359.398438 127.03125 359.398438 128.457031 C 359.398438 129.128906 359.191406 129.65625 358.804688 130.03125 Z M 358.804688 130.03125 " fill-opacity="1" fill-rule="nonzero"/><path fill="#da1f27" d="M 371.464844 138.625 L 380.007812 138.625 L 380.007812 136.214844 L 374.417969 136.214844 L 374.417969 132.3125 L 379.367188 132.3125 L 379.367188 129.976562 L 374.417969 129.976562 L 374.417969 126.289062 L 380.007812 126.289062 L 380.007812 123.882812 L 371.464844 123.882812 Z M 371.464844 138.625 " fill-opacity="1" fill-rule="nonzero"/><path fill="#da1f27" d="M 389.632812 138.625 L 398.164062 138.625 L 398.164062 136.214844 L 392.589844 136.214844 L 392.589844 132.3125 L 397.539062 132.3125 L 397.539062 129.976562 L 392.589844 129.976562 L 392.589844 126.289062 L 398.164062 126.289062 L 398.164062 123.882812 L 389.632812 123.882812 Z M 389.632812 138.625 " fill-opacity="1" fill-rule="nonzero"/><path fill="#da1f27" d="M 417.019531 124.816406 C 415.84375 124.210938 414.488281 123.90625 412.9375 123.90625 L 407.804688 123.90625 L 407.804688 138.625 L 412.9375 138.625 C 414.488281 138.625 415.84375 138.316406 417.019531 137.710938 C 418.195312 137.105469 419.09375 136.261719 419.734375 135.15625 C 420.371094 134.046875 420.691406 132.757812 420.691406 131.285156 C 420.691406 129.816406 420.371094 128.515625 419.734375 127.394531 C 419.09375 126.277344 418.195312 125.421875 417.019531 124.816406 Z M 416.414062 134.847656 C 415.570312 135.691406 414.382812 136.113281 412.832031 136.113281 L 410.746094 136.113281 L 410.746094 126.390625 L 412.832031 126.390625 C 414.382812 126.390625 415.570312 126.824219 416.414062 127.691406 C 417.257812 128.546875 417.679688 129.746094 417.679688 131.285156 C 417.679688 132.828125 417.257812 134.003906 416.414062 134.847656 Z M 416.414062 134.847656 " fill-opacity="1" fill-rule="nonzero"/><path fill="#da1f27" d="M 438.265625 123.90625 L 435.128906 130.625 L 431.972656 123.90625 L 428.640625 123.90625 L 433.636719 133.5 L 433.636719 138.625 L 436.578125 138.625 L 436.578125 133.5 L 441.550781 123.90625 Z M 438.265625 123.90625 " fill-opacity="1" fill-rule="nonzero"/><path fill="#ffffff" d="M 109.421875 41.421875 C 109.183594 41.421875 108.957031 41.410156 108.703125 41.375 L 108.660156 41.375 C 108.511719 41.34375 108.339844 41.308594 108.167969 41.273438 C 108.15625 41.273438 108.132812 41.273438 108.132812 41.261719 L 108.101562 41.261719 C 107.929688 41.226562 107.757812 41.183594 107.574219 41.125 L 108.007812 41.226562 L 108.054688 41.226562 L 108.691406 41.363281 L 109.320312 41.363281 C 109.320312 41.363281 109.355469 41.375 109.355469 41.375 C 109.390625 41.386719 109.402344 41.410156 109.421875 41.421875 Z M 109.421875 41.421875 " fill-opacity="1" fill-rule="nonzero"/><g clip-path="url(#a30de1405b)"><path fill="#da2028" d="M 108.703125 56.359375 C 104.691406 56.359375 101.429688 53.152344 101.429688 49.203125 L 101.429688 47.765625 L 108.441406 47.765625 L 108.441406 49.203125 C 108.441406 49.328125 108.648438 49.339844 108.703125 49.339844 L 124.992188 49.339844 C 125.082031 49.339844 125.242188 49.316406 125.242188 49.203125 L 125.242188 47.367188 C 125.242188 47.253906 125.070312 47.242188 124.992188 47.242188 L 108.703125 47.242188 C 108.5 47.242188 108.304688 47.242188 108.113281 47.21875 L 107.828125 47.183594 C 107.691406 47.171875 107.550781 47.148438 107.40625 47.128906 C 107.359375 47.128906 107.289062 47.105469 107.222656 47.09375 C 107.097656 47.09375 106.992188 47.070312 106.902344 47.035156 C 105.214844 46.738281 103.984375 46.03125 101.566406 44.46875 L 40.832031 12.964844 L 40.832031 16.707031 C 40.832031 17.519531 40.851562 18.566406 40.429688 19.789062 C 40.578125 19.753906 40.738281 19.742188 40.910156 19.742188 C 41.160156 19.742188 41.402344 19.777344 41.605469 19.8125 C 43.054688 20.109375 43.796875 21.761719 43.554688 24.136719 C 43.179688 27.789062 40.84375 31.484375 37.101562 31.484375 L 36.941406 31.484375 C 33.839844 31.472656 32.070312 29.886719 31.125 28.5625 C 29.46875 26.222656 29.289062 23.109375 29.949219 21.238281 C 30.703125 19.148438 31.886719 18.316406 32.675781 17.769531 C 32.8125 17.679688 33.121094 17.460938 33.164062 17.402344 C 33.144531 17.246094 33.15625 15.648438 33.164062 13.617188 L 33.164062 12.703125 C 33.210938 10.191406 33.246094 7.398438 33.246094 6.269531 C 33.246094 4.703125 34.042969 3.277344 35.378906 2.457031 C 36.097656 2.011719 36.917969 1.785156 37.738281 1.785156 C 38.425781 1.785156 39.085938 1.933594 39.703125 2.242188 L 98.304688 34.792969 C 98.441406 34.871094 98.542969 34.941406 98.667969 35.03125 L 98.839844 35.15625 C 99.5 35.601562 100.582031 36.332031 101.863281 37.121094 L 103.117188 37.863281 C 103.867188 38.308594 104.691406 38.730469 105.535156 39.128906 C 105.808594 39.265625 106.070312 39.378906 106.34375 39.480469 C 106.617188 39.597656 106.867188 39.699219 107.128906 39.777344 C 107.359375 39.871094 107.5625 39.9375 107.769531 40.007812 L 108.214844 40.097656 L 108.339844 40.121094 L 108.839844 40.222656 L 114.292969 40.222656 C 114.292969 40.222656 124.992188 40.222656 124.992188 40.222656 C 126.167969 40.222656 127.320312 40.507812 128.320312 41.035156 L 128.367188 41.035156 L 128.492188 41.148438 C 128.605469 41.195312 128.777344 41.285156 128.9375 41.410156 C 129.460938 41.742188 129.804688 42.015625 130.113281 42.347656 C 131.492188 43.691406 132.246094 45.472656 132.246094 47.367188 L 132.246094 49.203125 C 132.246094 53.152344 128.984375 56.359375 124.96875 56.359375 L 108.683594 56.359375 Z M 36.050781 24.71875 C 36.050781 24.71875 36.050781 24.761719 36.074219 24.820312 C 36.109375 24.96875 36.269531 25.230469 36.566406 25.3125 C 36.609375 25.3125 36.65625 25.324219 36.714844 25.324219 C 37.066406 25.324219 37.464844 25.082031 37.855469 24.648438 C 38.628906 23.792969 38.8125 22.996094 38.890625 22.308594 C 38.171875 23.132812 37.214844 23.941406 36.039062 24.707031 Z M 36.050781 24.71875 " fill-opacity="1" fill-rule="nonzero"/><path fill="#ffffff" d="M 37.738281 2.082031 C 38.367188 2.082031 38.996094 2.21875 39.574219 2.515625 L 98.164062 35.054688 C 98.257812 35.113281 98.371094 35.179688 98.496094 35.273438 L 98.679688 35.398438 C 99.339844 35.84375 100.4375 36.574219 101.714844 37.371094 C 102.125 37.609375 102.546875 37.863281 102.980469 38.113281 C 103.800781 38.59375 104.644531 39.027344 105.417969 39.390625 C 105.695312 39.527344 105.96875 39.640625 106.242188 39.757812 C 106.515625 39.871094 106.777344 39.972656 107.039062 40.0625 C 107.257812 40.15625 107.472656 40.222656 107.691406 40.292969 L 108.15625 40.394531 L 108.292969 40.417969 L 108.785156 40.519531 L 124.992188 40.519531 C 126.144531 40.519531 127.261719 40.792969 128.253906 41.332031 C 128.277344 41.332031 128.289062 41.34375 128.300781 41.355469 C 128.46875 41.445312 128.628906 41.535156 128.789062 41.648438 C 128.824219 41.660156 128.859375 41.683594 128.890625 41.707031 C 129.316406 41.980469 129.632812 42.242188 129.929688 42.550781 L 129.941406 42.550781 C 131.253906 43.839844 131.984375 45.550781 131.984375 47.378906 L 131.984375 49.214844 C 131.984375 53.003906 128.847656 56.082031 124.992188 56.082031 L 108.703125 56.082031 C 104.851562 56.082031 101.714844 53.003906 101.714844 49.214844 L 101.714844 48.0625 L 108.15625 48.0625 L 108.15625 49.214844 C 108.15625 49.523438 108.441406 49.636719 108.703125 49.636719 L 124.992188 49.636719 C 125.253906 49.636719 125.527344 49.523438 125.527344 49.214844 L 125.527344 47.378906 C 125.527344 47 125.117188 46.96875 124.992188 46.96875 L 108.703125 46.96875 C 108.511719 46.96875 108.328125 46.96875 108.144531 46.945312 L 107.859375 46.910156 C 107.757812 46.898438 107.621094 46.886719 107.472656 46.851562 C 107.371094 46.84375 107.277344 46.820312 107.210938 46.808594 C 107.140625 46.808594 107.0625 46.796875 106.992188 46.773438 C 105.304688 46.476562 104.074219 45.757812 101.722656 44.242188 L 40.546875 12.507812 L 40.546875 16.71875 C 40.558594 17.699219 40.558594 18.933594 39.917969 20.335938 C 40.226562 20.109375 40.578125 20.039062 40.910156 20.039062 C 41.148438 20.039062 41.367188 20.074219 41.558594 20.109375 C 42.835938 20.371094 43.5 21.898438 43.269531 24.125 C 42.90625 27.617188 40.703125 31.210938 37.101562 31.210938 C 37.054688 31.210938 37 31.210938 36.953125 31.210938 C 33.964844 31.210938 32.265625 29.679688 31.363281 28.414062 C 29.777344 26.167969 29.585938 23.15625 30.222656 21.351562 C 30.941406 19.34375 32.09375 18.546875 32.847656 18.019531 C 33.382812 17.644531 33.429688 17.585938 33.429688 17.472656 C 33.417969 17.222656 33.441406 15.097656 33.460938 12.726562 C 33.496094 10.214844 33.53125 7.421875 33.53125 6.289062 C 33.53125 4.820312 34.285156 3.484375 35.527344 2.71875 C 36.210938 2.296875 36.976562 2.082031 37.738281 2.082031 M 36.722656 25.628906 C 37.144531 25.628906 37.625 25.367188 38.082031 24.867188 C 39.050781 23.792969 39.152344 22.8125 39.234375 22.015625 C 39.257812 21.785156 39.277344 21.558594 39.324219 21.339844 C 38.640625 22.355469 37.546875 23.429688 35.859375 24.523438 C 35.859375 24.523438 35.742188 24.636719 35.800781 24.902344 C 35.859375 25.164062 36.097656 25.492188 36.496094 25.609375 C 36.574219 25.628906 36.644531 25.628906 36.722656 25.628906 M 37.738281 1.511719 L 37.738281 2.082031 C 37.738281 2.082031 37.738281 1.511719 37.738281 1.511719 C 36.859375 1.511719 35.996094 1.761719 35.230469 2.230469 C 33.816406 3.105469 32.960938 4.613281 32.960938 6.289062 C 32.960938 7.214844 32.9375 9.429688 32.890625 12.714844 L 32.890625 13.648438 C 32.871094 15.589844 32.859375 16.832031 32.859375 17.3125 C 32.789062 17.371094 32.675781 17.449219 32.515625 17.550781 C 31.738281 18.089844 30.460938 18.988281 29.6875 21.15625 C 29.003906 23.097656 29.195312 26.328125 30.894531 28.746094 C 31.878906 30.125 33.726562 31.769531 36.953125 31.78125 L 37.113281 31.78125 C 41.011719 31.78125 43.453125 27.957031 43.839844 24.179688 C 44.105469 21.648438 43.269531 19.878906 41.675781 19.550781 C 41.457031 19.515625 41.195312 19.46875 40.910156 19.46875 C 40.886719 19.46875 40.851562 19.46875 40.832031 19.46875 C 41.128906 18.375 41.117188 17.402344 41.117188 16.707031 L 41.117188 13.445312 C 41.117188 13.445312 101.460938 44.742188 101.460938 44.742188 C 103.847656 46.28125 105.101562 47.011719 106.855469 47.320312 C 106.949219 47.34375 107.050781 47.367188 107.140625 47.367188 L 107.164062 47.367188 C 107.222656 47.378906 107.289062 47.402344 107.371094 47.402344 C 107.507812 47.433594 107.644531 47.445312 107.746094 47.457031 L 107.917969 47.480469 L 101.144531 47.480469 L 101.144531 49.203125 C 101.144531 53.3125 104.53125 56.644531 108.703125 56.644531 L 124.992188 56.644531 C 129.167969 56.644531 132.554688 53.3125 132.554688 49.203125 L 132.554688 47.367188 C 132.554688 45.394531 131.765625 43.53125 130.339844 42.140625 C 130.011719 41.796875 129.65625 41.511719 129.199219 41.214844 C 129.167969 41.195312 129.121094 41.171875 129.0625 41.136719 C 128.914062 41.035156 128.765625 40.953125 128.640625 40.875 L 128.539062 40.773438 L 128.425781 40.773438 C 127.386719 40.222656 126.199219 39.9375 124.992188 39.9375 L 108.839844 39.9375 L 108.40625 39.847656 L 108.25 39.824219 L 107.816406 39.722656 C 107.667969 39.675781 107.460938 39.609375 107.265625 39.527344 C 106.984375 39.425781 106.730469 39.335938 106.46875 39.21875 C 106.207031 39.105469 105.945312 39.003906 105.683594 38.867188 C 104.828125 38.46875 104.015625 38.042969 103.277344 37.609375 C 103.023438 37.460938 102.773438 37.316406 102.523438 37.167969 L 102.007812 36.871094 C 100.765625 36.09375 99.707031 35.386719 99.011719 34.917969 L 98.828125 34.792969 C 98.726562 34.714844 98.609375 34.644531 98.519531 34.585938 L 98.507812 34.585938 C 98.507812 34.585938 98.449219 34.542969 98.449219 34.542969 L 39.859375 2 C 39.175781 1.660156 38.480469 1.5 37.75 1.5 Z M 36.394531 24.855469 C 37.167969 24.339844 37.84375 23.804688 38.414062 23.269531 C 38.277344 23.65625 38.046875 24.054688 37.660156 24.488281 C 37.328125 24.855469 37 25.070312 36.722656 25.070312 C 36.691406 25.070312 36.65625 25.070312 36.621094 25.070312 C 36.507812 25.039062 36.429688 24.945312 36.382812 24.878906 Z M 108.726562 47.539062 L 124.957031 47.539062 L 124.957031 49.066406 L 108.726562 49.066406 Z M 108.726562 47.539062 " fill-opacity="1" fill-rule="nonzero"/></g><path fill="#231f20" d="M 124.992188 30.59375 L 108.703125 30.59375 C 106.355469 31.050781 103.550781 32.410156 103.582031 34.691406 L 103.582031 34.78125 C 103.59375 35.03125 103.617188 35.273438 103.640625 35.488281 L 103.675781 35.695312 C 103.890625 36.882812 104.449219 37.703125 105.113281 38.273438 C 105.113281 38.285156 105.136719 38.296875 105.144531 38.308594 C 106.402344 39.402344 107.984375 39.585938 108.15625 39.609375 L 108.167969 39.609375 L 108.167969 39.574219 C 108.167969 39.574219 108.15625 37.460938 108.15625 37.460938 C 108.15625 37.085938 108.578125 37.050781 108.703125 37.050781 L 124.992188 37.050781 C 125.117188 37.050781 125.527344 37.085938 125.527344 37.460938 L 125.527344 38.980469 L 131.984375 38.980469 L 131.984375 37.460938 C 131.984375 33.675781 128.847656 30.59375 124.992188 30.59375 Z M 124.992188 30.59375 " fill-opacity="1" fill-rule="nonzero"/></svg>