<svg xmlns="http://www.w3.org/2000/svg" xmlns:xlink="http://www.w3.org/1999/xlink" width="40" zoomAndPan="magnify" viewBox="0 0 30 30.000001" height="40" preserveAspectRatio="xMidYMid meet" version="1.0"><defs><clipPath id="b38f5c94a5"><path d="M 4.351562 14 L 25.386719 14 L 25.386719 26.128906 L 4.351562 26.128906 Z M 4.351562 14 " clip-rule="nonzero"/></clipPath><clipPath id="16b2844c34"><path d="M 4.34375 14 L 25.394531 14 L 25.394531 26 L 4.34375 26 Z M 4.34375 14 " clip-rule="nonzero"/></clipPath><clipPath id="2d14fb71af"><path d="M 15.726562 19.304688 L 17.175781 19.304688 L 17.175781 21.484375 L 15.726562 21.484375 Z M 15.726562 19.304688 " clip-rule="nonzero"/></clipPath></defs><g clip-path="url(#b38f5c94a5)"><path fill="#231f20" d="M 5.875 16.476562 C 4.90625 16.695312 4.019531 15.769531 4.472656 14.8125 C 4.671875 14.382812 5.136719 13.917969 5.941406 14.046875 L 9.4375 14.507812 C 9.992188 14.578125 10.210938 15.25 10.136719 15.679688 C 10.054688 16.136719 9.960938 16.570312 9.960938 17.035156 C 9.960938 19.042969 11.136719 20.769531 12.832031 21.542969 C 14.105469 22.125 15.632812 22.125 16.90625 21.542969 C 18.597656 20.769531 19.777344 19.042969 19.777344 17.035156 C 19.777344 16.570312 19.683594 16.136719 19.601562 15.679688 C 19.527344 15.25 19.742188 14.578125 20.300781 14.507812 L 23.796875 14.046875 C 24.597656 13.917969 25.0625 14.382812 25.265625 14.8125 C 25.714844 15.769531 24.832031 16.695312 23.859375 16.476562 C 23.882812 16.816406 23.882812 17.160156 23.867188 17.503906 C 23.691406 21.03125 21.527344 24.03125 18.484375 25.375 C 16.207031 26.382812 13.53125 26.382812 11.25 25.375 C 8.210938 24.03125 6.046875 21.03125 5.871094 17.503906 C 5.855469 17.160156 5.855469 16.816406 5.875 16.476562 " fill-opacity="1" fill-rule="evenodd"/></g><g clip-path="url(#16b2844c34)"><path fill="#ffffff" d="M 6.300781 15.742188 C 6.355469 15.347656 6.332031 14.957031 5.917969 14.761719 C 5.585938 14.605469 5.226562 14.6875 5.070312 15.023438 C 4.96875 15.230469 4.988281 15.433594 5.085938 15.601562 C 5.378906 16.105469 6.085938 15.644531 5.429688 15.132812 C 5.453125 15.097656 5.546875 14.984375 5.597656 14.929688 C 6.402344 15.398438 5.839844 16.394531 5.199219 16.089844 C 4.75 15.878906 4.585938 15.363281 4.800781 14.90625 C 5.015625 14.449219 5.441406 14.351562 6.058594 14.449219 L 9.164062 14.875 C 9.644531 14.941406 9.847656 15.222656 9.753906 15.675781 C 9.65625 16.117188 9.597656 16.582031 9.597656 17.035156 C 9.597656 19.203125 10.882812 21.066406 12.71875 21.890625 C 14.066406 22.496094 15.671875 22.496094 17.019531 21.890625 C 18.855469 21.066406 20.136719 19.203125 20.136719 17.035156 C 20.136719 16.582031 20.082031 16.117188 19.984375 15.675781 C 19.890625 15.222656 20.09375 14.941406 20.574219 14.875 L 23.679688 14.449219 C 24.292969 14.351562 24.722656 14.449219 24.9375 14.90625 C 25.152344 15.363281 24.988281 15.878906 24.539062 16.089844 C 23.898438 16.394531 23.335938 15.398438 24.140625 14.929688 C 24.191406 14.984375 24.285156 15.097656 24.308594 15.132812 C 23.652344 15.644531 24.359375 16.105469 24.652344 15.601562 C 24.75 15.433594 24.769531 15.230469 24.667969 15.023438 C 24.511719 14.6875 24.148438 14.605469 23.820312 14.761719 C 23.40625 14.957031 23.382812 15.347656 23.433594 15.742188 C 23.519531 16.367188 23.542969 16.996094 23.503906 17.625 C 23.285156 20.945312 21.230469 23.761719 18.359375 25.039062 C 16.160156 26.015625 13.578125 26.015625 11.378906 25.039062 C 8.507812 23.761719 6.453125 20.945312 6.234375 17.625 C 6.195312 16.996094 6.21875 16.367188 6.300781 15.742188 " fill-opacity="1" fill-rule="evenodd"/></g><path fill="#00adef" d="M 6.464844 14.859375 L 9.160156 15.222656 C 9.5 15.339844 9.496094 15.492188 9.425781 15.828125 C 9.28125 16.515625 9.25 17.191406 9.359375 17.890625 C 9.648438 19.808594 10.894531 21.40625 12.585938 22.171875 C 14.019531 22.816406 15.71875 22.816406 17.148438 22.171875 C 18.84375 21.40625 20.089844 19.808594 20.378906 17.890625 C 20.484375 17.191406 20.457031 16.515625 20.3125 15.828125 C 20.242188 15.492188 20.238281 15.339844 20.578125 15.222656 L 23.273438 14.859375 C 23.054688 15.171875 23.148438 15.886719 23.199219 16.410156 C 23.246094 16.878906 23.222656 17.34375 23.179688 17.8125 C 22.898438 20.941406 20.925781 23.578125 18.191406 24.773438 C 16.097656 25.691406 13.640625 25.691406 11.546875 24.773438 C 8.8125 23.578125 6.839844 20.941406 6.554688 17.8125 C 6.515625 17.34375 6.492188 16.878906 6.539062 16.410156 C 6.589844 15.886719 6.683594 15.171875 6.464844 14.859375 " fill-opacity="1" fill-rule="evenodd"/><path fill="#231f20" d="M 13.742188 8.078125 C 13.707031 7.980469 13.703125 7.871094 13.671875 7.765625 C 13.558594 7.375 13.339844 7.429688 13.21875 7.046875 C 13.101562 6.664062 13.085938 6.121094 13.273438 6.003906 C 13.074219 2.90625 17.160156 2.90625 16.960938 6.003906 C 17.148438 6.121094 17.132812 6.664062 17.015625 7.046875 C 16.894531 7.429688 16.675781 7.375 16.5625 7.765625 C 16.53125 7.871094 16.527344 7.980469 16.492188 8.078125 C 16.761719 8.105469 17.339844 8.359375 17.574219 8.96875 C 18.351562 9.027344 18.699219 9.066406 19.171875 9.234375 C 20.164062 9.582031 21.285156 10.992188 22.132812 11.785156 C 22.785156 12.398438 23.726562 12.9375 24.011719 13.761719 C 24.210938 14.335938 23.980469 14.9375 23.019531 15.484375 C 22.050781 16.035156 20.679688 16.503906 20.230469 16.503906 C 20.25 16.863281 19.648438 17.601562 19.320312 17.640625 C 19.300781 18.140625 19.3125 18.609375 19.351562 19.058594 C 18.863281 20.160156 17.988281 21.046875 16.90625 21.542969 C 15.632812 22.125 14.105469 22.125 12.832031 21.542969 C 12.386719 21.339844 11.972656 21.066406 11.609375 20.742188 C 11.628906 20.507812 11.640625 20.277344 11.648438 20.070312 C 11.496094 20.167969 11.113281 20.390625 10.847656 20.546875 C 10.109375 21.058594 9.332031 19.988281 10.148438 19.386719 C 10.308594 19.265625 10.480469 19.128906 10.664062 18.996094 C 10.390625 18.675781 10.148438 18.378906 9.976562 18.171875 C 9.171875 17.191406 8.175781 15.839844 8.449219 14.9375 C 9.105469 13.457031 9.789062 11.976562 10.449219 10.496094 C 10.886719 9.613281 11.382812 9.332031 12.96875 9.035156 C 13.113281 8.503906 13.515625 8.183594 13.742188 8.078125 Z M 11.789062 17.042969 C 11.851562 16.210938 11.625 15.554688 11.550781 14.757812 C 11.402344 15.035156 11.253906 15.410156 11.09375 15.519531 C 11.453125 16.097656 11.546875 16.90625 11.789062 17.042969 Z M 19.632812 13.449219 C 19.808594 13.695312 19.949219 13.886719 20.222656 14.171875 C 19.929688 14.433594 19.617188 14.554688 19.429688 14.730469 C 19.5 14.238281 19.5625 13.941406 19.632812 13.449219 " fill-opacity="1" fill-rule="evenodd"/><path fill="#ffffff" d="M 11.148438 14.132812 C 10.550781 13.777344 10.277344 13.5625 9.679688 13.207031 C 9.679688 13.207031 9.878906 12.761719 9.972656 12.476562 C 10.464844 12.835938 11.539062 13.523438 11.148438 14.132812 " fill-opacity="1" fill-rule="evenodd"/><path fill="#f78f6a" d="M 22.523438 12.75 C 23.515625 13.792969 24.210938 14.082031 22.871094 15.097656 C 22.230469 15.585938 21.3125 15.835938 20.683594 15.960938 C 20.824219 15.84375 21.015625 15.667969 21.035156 15.3125 C 20.65625 15.691406 20.246094 15.972656 19.894531 16.226562 C 19.675781 16.816406 19.507812 17.121094 19.246094 17.214844 C 19.070312 17.046875 18.9375 16.609375 18.933594 16.378906 C 18.921875 15.777344 19.214844 15.3125 19.789062 14.988281 C 20.449219 14.613281 20.917969 14.324219 22.523438 12.75 " fill-opacity="1" fill-rule="evenodd"/><path fill="#ffffff" d="M 20.273438 13.457031 C 20.476562 13.636719 20.613281 13.75 20.792969 13.867188 C 21.101562 13.609375 21.945312 12.699219 22.078125 12.53125 C 22.078125 12.53125 21.765625 12.152344 21.453125 11.851562 C 20.886719 12.332031 20.632812 12.90625 20.273438 13.457031 " fill-opacity="1" fill-rule="evenodd"/><path fill="#ffffff" d="M 11.726562 9.769531 C 10.722656 10.230469 10.46875 11.234375 10.105469 12.207031 C 10.40625 12.460938 10.765625 12.6875 11.367188 13.109375 C 11.34375 12.390625 11.417969 10.855469 11.601562 10.230469 C 11.644531 10.875 11.722656 11.71875 11.808594 12.582031 C 12.03125 12.222656 12.257812 11.875 12.582031 11.5 C 12.351562 12.121094 12.117188 12.738281 11.886719 13.355469 C 11.960938 14.082031 12.039062 14.785156 12.101562 15.375 C 12.496094 14.53125 12.890625 13.65625 13.285156 12.859375 C 13.332031 12.519531 12.449219 10.464844 11.726562 9.769531 " fill-opacity="1" fill-rule="evenodd"/><path fill="#00adef" d="M 12.105469 9.640625 C 12.777344 10.523438 13.332031 11.519531 13.609375 12.566406 C 13.890625 12.566406 14.015625 12.554688 14.300781 12.554688 C 14.210938 11.953125 13.449219 10.230469 12.738281 9.535156 C 12.488281 9.535156 12.304688 9.574219 12.105469 9.640625 " fill-opacity="1" fill-rule="evenodd"/><path fill="#ffffff" d="M 14.996094 12.554688 C 14.992188 11.996094 14.988281 11.46875 14.984375 11 C 14.976562 10.265625 14.4375 9.804688 13.703125 9.855469 C 14.277344 10.125 14.707031 11.144531 14.640625 11.335938 C 14.535156 11.246094 14.035156 10.394531 13.664062 10.191406 C 14.117188 10.867188 14.578125 11.796875 14.753906 12.554688 L 14.996094 12.554688 " fill-opacity="1" fill-rule="evenodd"/><path fill="#ffffff" d="M 15.367188 12.554688 L 16.097656 12.554688 C 16.152344 12.316406 16.222656 12.082031 16.304688 11.847656 L 15.367188 12.554688 " fill-opacity="1" fill-rule="evenodd"/><path fill="#ffffff" d="M 17.234375 10.070312 C 17.21875 9.429688 15.378906 9.863281 15.378906 10.863281 L 15.367188 12.484375 C 16.007812 11.6875 16.507812 10.941406 17.234375 10.070312 " fill-opacity="1" fill-rule="evenodd"/><path fill="#00adef" d="M 18.753906 9.539062 C 18.5 9.460938 18.382812 9.441406 18.144531 9.445312 C 17.582031 9.96875 16.855469 11.320312 16.554688 12.554688 C 16.835938 12.554688 17.027344 12.554688 17.308594 12.554688 C 17.566406 11.589844 18.109375 10.398438 18.753906 9.539062 " fill-opacity="1" fill-rule="evenodd"/><path fill="#ffffff" d="M 18.125 14.042969 C 18.433594 13.660156 18.890625 13.082031 19.359375 12.523438 C 19.476562 11.847656 19.609375 10.859375 19.621094 10.089844 C 20.144531 11.722656 19.308594 12.394531 20.09375 13.050781 C 20.53125 12.496094 20.796875 11.882812 21.003906 11.433594 C 20.53125 10.9375 19.960938 9.832031 19.117188 9.671875 C 18.394531 10.300781 17.53125 12.605469 17.578125 12.960938 C 17.761719 13.320312 17.941406 13.679688 18.125 14.042969 " fill-opacity="1" fill-rule="evenodd"/><path fill="#ffffff" d="M 18.847656 15.523438 C 18.945312 14.90625 19.070312 14.050781 19.144531 13.625 C 18.90625 13.898438 18.613281 14.179688 18.359375 14.441406 C 18.511719 14.804688 18.695312 15.160156 18.847656 15.523438 " fill-opacity="1" fill-rule="evenodd"/><path fill="#00adef" d="M 17.589844 13.839844 C 17.464844 13.554688 17.328125 13.242188 17.183594 12.933594 C 15.984375 12.933594 14.84375 12.980469 13.65625 12.980469 C 12.992188 14.207031 12.625 15.34375 12.195312 16.347656 C 12.933594 15.519531 13.238281 15.066406 13.59375 14.535156 C 13.65625 15.320312 12.453125 16.769531 12.089844 17.1875 C 12.414062 17.222656 12.664062 17.28125 12.875 17.375 C 13.0625 17.230469 13.246094 17.089844 13.421875 16.960938 C 13.011719 16.917969 12.808594 16.117188 13.332031 15.753906 L 14.050781 15.25 C 14.039062 15.171875 14.066406 15.09375 14.125 15.050781 L 14.609375 14.710938 C 14.703125 14.644531 14.792969 14.671875 14.839844 14.699219 C 14.835938 14.570312 14.898438 14.5 15.035156 14.40625 C 15.21875 14.273438 15.546875 14.042969 15.734375 13.914062 L 15.785156 13.984375 C 16.554688 13.371094 17.078125 13.324219 17.589844 13.839844 " fill-opacity="1" fill-rule="evenodd"/><path fill="#00adef" d="M 18.980469 19.746094 C 18.878906 19.089844 18.828125 18.386719 18.875 17.5 C 18.691406 17.398438 18.375 16.660156 18.617188 15.902344 C 18.527344 15.710938 18.375 15.417969 18.238281 15.148438 C 18.226562 15.488281 18.042969 15.773438 17.71875 16 L 14.042969 18.464844 C 14.199219 18.703125 13.878906 19.171875 13.515625 19.558594 C 13.046875 20.054688 12.445312 20.4375 12.089844 20.21875 C 12.085938 20.398438 12.050781 20.71875 12.003906 21.058594 C 12.261719 21.246094 12.539062 21.410156 12.832031 21.542969 C 13.917969 22.039062 15.183594 22.113281 16.324219 21.765625 C 16.992188 20.292969 17.90625 17.707031 18.195312 17.222656 C 18.214844 17.632812 17.503906 20.023438 17.035156 21.480469 C 17.828125 21.089844 18.5 20.488281 18.980469 19.746094 Z M 13.246094 20.617188 C 14.292969 19.617188 15.519531 18.550781 16.390625 17.617188 C 15.871094 18.558594 14.441406 20.773438 13.246094 20.617188 " fill-opacity="1" fill-rule="evenodd"/><path fill="#f78f6a" d="M 14.070312 8.484375 C 14.015625 8.972656 14.070312 9.097656 14.300781 9.320312 C 14.589844 9.601562 14.945312 9.902344 15.183594 10.308594 C 15.261719 9.828125 15.605469 9.683594 15.875 9.421875 C 16.082031 9.214844 15.957031 9.011719 15.742188 9.136719 C 15.148438 9.488281 14.359375 9.34375 14.070312 8.484375 " fill-opacity="1" fill-rule="evenodd"/><path fill="#00adef" d="M 16.652344 5.722656 C 16 5.238281 14.320312 5.40625 13.851562 5.722656 C 14.070312 4.960938 15.96875 4.972656 16.652344 5.722656 " fill-opacity="1" fill-rule="evenodd"/><path fill="#00adef" d="M 13.789062 5.085938 C 13.832031 3.941406 16.1875 3.816406 16.253906 4.988281 C 15.761719 4.699219 14.328125 4.683594 13.789062 5.085938 " fill-opacity="1" fill-rule="evenodd"/><path fill="#f78f6a" d="M 14.652344 8.757812 C 14.230469 8.46875 13.949219 7.535156 13.816406 6.6875 C 13.785156 6.503906 13.761719 6.320312 13.746094 6.148438 C 14.203125 5.933594 15.226562 5.832031 15.851562 6.160156 C 15.558594 6.132812 15.320312 6.246094 15.226562 6.367188 C 15.1875 6.722656 15.28125 7.070312 15.304688 7.421875 C 15.25 7.691406 14.820312 7.265625 14.75 7.660156 C 14.960938 7.566406 15.050781 7.800781 15.363281 7.671875 C 15.519531 7.726562 15.667969 7.605469 15.589844 7.429688 C 15.484375 7.191406 15.402344 6.90625 15.460938 6.613281 C 15.6875 6.78125 16.078125 6.675781 16.242188 6.558594 C 16.367188 6.738281 16.414062 6.964844 16.347656 7.25 C 16.195312 7.914062 15.953125 8.53125 15.621094 8.757812 C 15.355469 8.941406 14.917969 8.941406 14.652344 8.757812 Z M 14.601562 8.066406 C 14.824219 8.109375 14.945312 7.992188 15.039062 8.007812 C 15.113281 8.019531 15.171875 8.019531 15.246094 8.007812 C 15.339844 7.992188 15.484375 8.097656 15.683594 8.066406 C 15.496094 8.246094 14.753906 8.25 14.601562 8.066406 Z M 13.894531 6.4375 C 14.042969 6.117188 14.820312 6.003906 14.992188 6.378906 C 14.867188 6.59375 14.578125 6.90625 14.113281 6.558594 C 14.152344 6.527344 14.203125 6.488281 14.25 6.460938 C 14.34375 6.40625 14.265625 6.359375 14.207031 6.382812 C 14.121094 6.414062 13.964844 6.503906 13.894531 6.4375 Z M 15.527344 8.28125 C 15.375 8.335938 14.886719 8.347656 14.757812 8.28125 C 14.886719 8.558594 15.359375 8.558594 15.527344 8.28125 " fill-opacity="1" fill-rule="evenodd"/><path fill="#ffffff" d="M 17.324219 9.519531 C 17.167969 9.390625 16.867188 9.429688 16.523438 9.5 C 16.789062 9.320312 16.949219 8.902344 16.761719 8.5 C 17.066406 8.765625 17.304688 9.152344 17.324219 9.519531 " fill-opacity="1" fill-rule="evenodd"/><path fill="#f78f6a" d="M 13.480469 6.300781 C 13.53125 6.683594 13.613281 6.933594 13.636719 7.101562 C 13.523438 7.085938 13.378906 6.691406 13.480469 6.300781 " fill-opacity="1" fill-rule="evenodd"/><path fill="#ffffff" d="M 13.164062 9.507812 C 13.359375 9.402344 13.730469 9.417969 14.023438 9.5 C 13.757812 9.320312 13.597656 8.902344 13.785156 8.5 C 13.484375 8.765625 13.183594 9.140625 13.164062 9.507812 " fill-opacity="1" fill-rule="evenodd"/><path fill="#a7a5a6" d="M 14.246094 15.59375 L 13.605469 16.042969 C 13.199219 16.332031 13.515625 16.761719 13.859375 16.664062 C 13.777344 16.503906 13.714844 16.191406 14.34375 15.738281 L 14.246094 15.59375 " fill-opacity="1" fill-rule="evenodd"/><path fill="#a7a5a6" d="M 16.277344 14.160156 L 16.003906 14.351562 L 16.386719 14.910156 L 16.597656 14.761719 L 16.648438 14.835938 L 16.859375 14.6875 L 17.527344 15.65625 C 17.867188 15.382812 18.011719 15.09375 17.714844 14.664062 C 17.265625 14.007812 17.082031 13.59375 16.277344 14.160156 " fill-opacity="1" fill-rule="evenodd"/><path fill="#ed1c24" d="M 10.972656 19.246094 C 10.59375 19.527344 10.667969 19.460938 10.359375 19.695312 C 9.898438 20.011719 10.238281 20.550781 10.671875 20.25 L 11.484375 19.714844 L 10.972656 19.246094 " fill-opacity="1" fill-rule="evenodd"/><path fill="#ed1c24" d="M 16.285156 15.085938 L 15.800781 14.378906 C 15.613281 14.511719 15.558594 14.550781 15.371094 14.683594 C 14.9375 14.988281 15.398438 15.546875 15.605469 15.847656 C 15.414062 15.988281 15.015625 16.277344 14.824219 16.421875 C 14.71875 16.269531 14.597656 16.09375 14.492188 15.941406 C 14.003906 16.265625 14.027344 16.546875 14.207031 16.882812 C 13.90625 17.109375 13.554688 17.367188 13.183594 17.640625 C 13.359375 17.792969 13.589844 17.992188 13.753906 18.144531 L 16.671875 16.128906 L 16.0625 15.246094 L 16.285156 15.085938 " fill-opacity="1" fill-rule="evenodd"/><path fill="#d3d2d2" d="M 16.941406 16.039062 L 16.367188 15.207031 L 16.242188 15.296875 L 16.8125 16.128906 L 16.941406 16.039062 " fill-opacity="1" fill-rule="evenodd"/><path fill="#7b7979" d="M 15.261719 15.652344 L 14.902344 15.128906 C 14.851562 15.054688 14.757812 15.03125 14.695312 15.074219 L 14.425781 15.265625 C 14.363281 15.308594 14.355469 15.40625 14.40625 15.480469 L 14.765625 16.003906 C 14.816406 16.078125 14.910156 16.101562 14.972656 16.058594 L 15.242188 15.867188 C 15.304688 15.824219 15.3125 15.726562 15.261719 15.652344 " fill-opacity="1" fill-rule="evenodd"/><path fill="#d3d2d2" d="M 17.417969 15.703125 L 16.84375 14.871094 L 16.71875 14.957031 L 17.289062 15.789062 L 17.417969 15.703125 " fill-opacity="1" fill-rule="evenodd"/><path fill="#f78f6a" d="M 13.375 19.085938 C 13.0625 19.5625 12.605469 18.5625 12.203125 18.722656 C 12.457031 18.9375 12.75 19.238281 13 19.453125 C 12.628906 19.867188 12.140625 18.882812 11.84375 19.082031 C 12.097656 19.320312 12.332031 19.546875 12.605469 19.757812 C 12.386719 19.890625 12.175781 19.867188 12.003906 19.710938 L 10.53125 18.335938 C 10.410156 18.222656 10.375 18.019531 10.390625 17.933594 C 10.402344 17.847656 10.636719 17.5 10.515625 17.269531 C 10.375 17.417969 10.257812 17.554688 10.101562 17.675781 C 9.734375 17.195312 8.464844 15.746094 8.847656 14.984375 L 9.515625 13.652344 C 10.042969 13.960938 10.664062 14.246094 11.191406 14.554688 C 11.066406 14.800781 10.996094 15.007812 10.8125 15.203125 C 10.605469 14.925781 10.371094 14.777344 10.089844 14.828125 C 10.910156 15.476562 11.226562 16.820312 11.421875 17.359375 C 11.839844 17.738281 12.515625 17.542969 12.929688 17.894531 L 13.675781 18.527344 C 13.8125 18.644531 13.5625 18.867188 13.492188 18.863281 C 13.175781 18.847656 12.941406 18.253906 12.546875 18.371094 L 13.375 19.085938 " fill-opacity="1" fill-rule="evenodd"/><path fill="#ffffff" d="M 9.679688 22.964844 L 10.382812 23.535156 C 10.726562 23.824219 11.308594 23.15625 11.179688 22.8125 C 11.34375 22.730469 11.460938 22.554688 11.464844 22.375 C 11.472656 22.164062 11.3125 22.054688 11.144531 21.917969 C 11.019531 21.816406 10.890625 21.710938 10.761719 21.605469 C 10.402344 22.058594 10.042969 22.511719 9.679688 22.964844 Z M 10.632812 22.308594 L 10.808594 22.453125 C 10.84375 22.476562 10.871094 22.503906 10.910156 22.519531 C 11.074219 22.574219 11.183594 22.40625 11.050781 22.257812 C 11.015625 22.21875 10.972656 22.1875 10.933594 22.15625 L 10.820312 22.066406 Z M 10.34375 23.136719 L 10.148438 22.976562 L 10.480469 22.554688 L 10.679688 22.714844 C 10.949219 22.917969 10.597656 23.359375 10.34375 23.136719 " fill-opacity="1" fill-rule="evenodd"/><path fill="#ffffff" d="M 14.007812 23.433594 L 14.210938 23.460938 C 14.382812 23.484375 14.394531 23.648438 14.378906 23.785156 L 14.761719 23.835938 L 14.773438 23.742188 C 14.808594 23.472656 14.621094 23.21875 14.355469 23.183594 L 13.941406 23.125 C 13.675781 23.089844 13.425781 23.277344 13.390625 23.546875 L 13.289062 24.296875 C 13.253906 24.566406 13.441406 24.816406 13.707031 24.855469 L 14.121094 24.914062 C 14.386719 24.949219 14.636719 24.757812 14.671875 24.488281 C 14.695312 24.328125 14.714844 24.164062 14.738281 24 L 13.972656 23.894531 L 13.929688 24.199219 L 14.3125 24.253906 C 14.304688 24.308594 14.292969 24.394531 14.292969 24.40625 C 14.261719 24.535156 14.191406 24.625 14.058594 24.605469 L 13.851562 24.578125 C 13.695312 24.554688 13.664062 24.421875 13.683594 24.261719 L 13.761719 23.691406 C 13.78125 23.53125 13.851562 23.410156 14.007812 23.433594 " fill-opacity="1" fill-rule="evenodd"/><path fill="#ffffff" d="M 11.269531 24.054688 L 10.949219 23.890625 C 11.210938 23.371094 11.472656 22.851562 11.734375 22.335938 L 12.058594 22.503906 L 11.269531 24.054688 " fill-opacity="1" fill-rule="evenodd"/><path fill="#ffffff" d="M 9.152344 19.222656 C 8.90625 19.34375 8.6875 19.453125 8.453125 19.570312 C 8.027344 19.785156 7.949219 19.894531 8.210938 20.296875 L 9.390625 19.707031 L 9.5625 20.058594 L 8.015625 20.832031 L 7.691406 20.167969 C 7.515625 19.8125 7.65625 19.574219 7.96875 19.382812 C 8.101562 19.300781 8.246094 19.234375 8.375 19.171875 L 8.980469 18.867188 L 9.152344 19.222656 " fill-opacity="1" fill-rule="evenodd"/><path fill="#ffffff" d="M 12.160156 22.589844 L 12.523438 22.722656 L 12.6875 23.851562 L 13.019531 22.902344 L 13.382812 23.03125 L 12.804688 24.675781 L 12.441406 24.542969 L 12.277344 23.414062 L 11.945312 24.367188 L 11.582031 24.234375 L 12.160156 22.589844 " fill-opacity="1" fill-rule="evenodd"/><path fill="#ffffff" d="M 9.625 20.207031 L 9.984375 20.648438 L 9.347656 21.53125 L 10.328125 21.074219 L 10.683594 21.511719 L 9.351562 22.621094 L 9.109375 22.320312 L 9.953125 21.617188 L 8.933594 22.105469 L 8.710938 21.832031 L 9.382812 20.914062 L 8.539062 21.617188 L 8.292969 21.316406 L 9.625 20.207031 " fill-opacity="1" fill-rule="evenodd"/><path fill="#ffffff" d="M 18.265625 24.164062 L 18.128906 23.796875 L 17.394531 24.082031 L 17.292969 23.8125 L 17.894531 23.582031 L 17.757812 23.214844 L 17.15625 23.449219 L 17.054688 23.179688 L 17.722656 22.921875 L 17.585938 22.554688 L 16.609375 22.933594 L 16.847656 23.566406 L 16.753906 23.601562 L 16.890625 23.964844 L 16.984375 23.929688 L 17.222656 24.566406 L 18.265625 24.164062 " fill-opacity="1" fill-rule="evenodd"/><path fill="#ffffff" d="M 16.238281 24.484375 L 16.066406 24.511719 C 15.925781 24.535156 15.886719 24.488281 15.867188 24.375 L 15.546875 24.429688 L 15.5625 24.511719 C 15.597656 24.734375 15.8125 24.886719 16.035156 24.851562 L 16.378906 24.792969 C 16.601562 24.753906 16.75 24.539062 16.714844 24.316406 L 16.683594 24.132812 C 16.640625 23.847656 16.476562 23.757812 16.292969 23.757812 C 16.234375 23.757812 16.175781 23.765625 16.117188 23.777344 C 16.039062 23.792969 15.960938 23.808594 15.882812 23.820312 C 15.777344 23.832031 15.761719 23.726562 15.742188 23.625 C 15.722656 23.492188 15.761719 23.460938 15.890625 23.4375 L 16.0625 23.410156 C 16.203125 23.382812 16.242188 23.429688 16.261719 23.546875 L 16.578125 23.492188 L 16.566406 23.410156 C 16.527344 23.1875 16.316406 23.03125 16.09375 23.070312 L 15.75 23.128906 C 15.527344 23.167969 15.375 23.382812 15.414062 23.605469 L 15.441406 23.785156 C 15.472656 23.992188 15.585938 24.148438 15.796875 24.164062 C 15.917969 24.171875 16.046875 24.140625 16.167969 24.117188 C 16.332031 24.085938 16.359375 24.152344 16.382812 24.296875 C 16.40625 24.425781 16.367188 24.460938 16.238281 24.484375 " fill-opacity="1" fill-rule="evenodd"/><path fill="#ffffff" d="M 19.703125 23.246094 L 19.394531 23.457031 C 19.28125 23.289062 19.082031 22.851562 18.816406 23.050781 L 18.601562 23.195312 L 18.96875 23.746094 L 18.65625 23.957031 C 18.335938 23.476562 18.015625 22.992188 17.695312 22.511719 C 17.847656 22.40625 18.003906 22.300781 18.15625 22.195312 C 18.355469 22.0625 18.527344 21.925781 18.734375 21.984375 C 18.980469 22.054688 19.144531 22.34375 19.039062 22.589844 C 19.363281 22.648438 19.542969 23.003906 19.703125 23.246094 Z M 18.183594 22.566406 L 18.355469 22.824219 C 18.441406 22.765625 18.535156 22.710938 18.617188 22.644531 C 18.820312 22.476562 18.679688 22.261719 18.449219 22.386719 C 18.355469 22.4375 18.269531 22.507812 18.183594 22.566406 " fill-opacity="1" fill-rule="evenodd"/><path fill="#ffffff" d="M 20.285156 22.699219 C 19.757812 22.410156 19.230469 22.121094 18.703125 21.832031 L 18.96875 21.558594 L 19.992188 22.121094 L 19.4375 21.085938 L 19.707031 20.816406 C 19.992188 21.347656 20.277344 21.882812 20.5625 22.417969 L 20.285156 22.699219 " fill-opacity="1" fill-rule="evenodd"/><path fill="#ffffff" d="M 21.359375 21.394531 L 21.152344 21.691406 C 20.679688 21.359375 20.210938 21.023438 19.742188 20.6875 L 19.949219 20.386719 L 21.359375 21.394531 " fill-opacity="1" fill-rule="evenodd"/><path fill="#ffffff" d="M 20.542969 19.921875 L 20.636719 19.738281 C 20.71875 19.582031 20.875 19.621094 20.996094 19.6875 L 21.171875 19.339844 L 21.085938 19.292969 C 20.847656 19.167969 20.550781 19.265625 20.429688 19.507812 L 20.234375 19.882812 C 20.113281 20.125 20.207031 20.425781 20.445312 20.550781 L 21.109375 20.898438 C 21.347656 21.019531 21.644531 20.925781 21.769531 20.683594 L 21.960938 20.304688 C 22.082031 20.066406 21.988281 19.765625 21.75 19.640625 L 21.664062 19.59375 L 21.488281 19.941406 C 21.609375 20.007812 21.730469 20.113281 21.652344 20.265625 L 21.558594 20.453125 C 21.484375 20.59375 21.347656 20.582031 21.210938 20.507812 L 20.699219 20.242188 C 20.5625 20.167969 20.472656 20.0625 20.542969 19.921875 " fill-opacity="1" fill-rule="evenodd"/><path fill="#ffffff" d="M 22.554688 18.246094 L 22.179688 18.15625 L 22 18.933594 L 21.722656 18.867188 L 21.871094 18.230469 L 21.496094 18.144531 L 21.347656 18.777344 L 21.070312 18.710938 L 21.234375 18.003906 L 20.859375 17.917969 L 20.621094 18.949219 L 21.273438 19.101562 L 21.25 19.199219 L 21.625 19.289062 L 21.648438 19.191406 L 22.300781 19.347656 L 22.554688 18.246094 " fill-opacity="1" fill-rule="evenodd"/><path fill="#ffffff" d="M 22.296875 17.199219 L 22.289062 17.375 C 22.28125 17.519531 22.226562 17.550781 22.113281 17.542969 L 22.097656 17.871094 L 22.179688 17.875 C 22.402344 17.886719 22.597656 17.710938 22.609375 17.484375 L 22.625 17.128906 C 22.636719 16.902344 22.460938 16.703125 22.238281 16.695312 L 22.058594 16.683594 C 21.769531 16.664062 21.648438 16.808594 21.609375 16.992188 C 21.597656 17.046875 21.589844 17.105469 21.59375 17.167969 C 21.585938 17.25 21.585938 17.328125 21.582031 17.410156 C 21.570312 17.515625 21.464844 17.511719 21.363281 17.503906 C 21.234375 17.496094 21.207031 17.453125 21.214844 17.320312 L 21.222656 17.144531 C 21.230469 17 21.285156 16.972656 21.398438 16.976562 L 21.414062 16.648438 L 21.332031 16.644531 C 21.109375 16.632812 20.914062 16.8125 20.902344 17.039062 L 20.886719 17.394531 C 20.875 17.621094 21.050781 17.816406 21.273438 17.828125 L 21.453125 17.835938 C 21.660156 17.851562 21.832031 17.773438 21.894531 17.570312 C 21.929688 17.453125 21.925781 17.3125 21.929688 17.191406 C 21.933594 17.019531 22.003906 17.007812 22.148438 17.015625 C 22.28125 17.023438 22.304688 17.066406 22.296875 17.199219 " fill-opacity="1" fill-rule="evenodd"/><path fill="#ffffff" d="M 7.882812 17.175781 L 7.085938 17.21875 L 7.0625 16.839844 C 7.636719 16.808594 8.210938 16.777344 8.785156 16.746094 C 8.796875 16.933594 8.804688 17.121094 8.816406 17.308594 C 8.828125 17.550781 8.855469 17.765625 8.699219 17.917969 C 8.535156 18.074219 8.25 18.089844 8.074219 17.953125 C 7.902344 17.820312 7.902344 17.601562 7.890625 17.355469 Z M 8.503906 17.464844 C 8.507812 17.355469 8.496094 17.246094 8.488281 17.140625 L 8.199219 17.15625 C 8.203125 17.257812 8.203125 17.390625 8.21875 17.480469 C 8.253906 17.730469 8.492188 17.714844 8.503906 17.464844 " fill-opacity="1" fill-rule="evenodd"/><path fill="#ffffff" d="M 7.207031 18.53125 L 7.4375 19.425781 L 7.769531 19.335938 L 7.625 18.785156 C 8.148438 18.644531 7.980469 18.691406 8.960938 18.429688 L 8.875 18.089844 C 8.160156 18.277344 7.867188 18.355469 7.207031 18.53125 " fill-opacity="1" fill-rule="evenodd"/><g clip-path="url(#2d14fb71af)"><path fill="#26a9e0" d="M 17.054688 20.789062 C 17.054688 20.792969 17.054688 20.792969 17.054688 20.792969 L 17.054688 20.804688 C 17.054688 20.8125 17.054688 20.816406 17.054688 20.824219 C 17.054688 20.824219 17.054688 20.824219 17.054688 20.828125 L 17.050781 20.832031 C 17.050781 20.835938 17.050781 20.839844 17.050781 20.839844 C 17.050781 20.847656 17.050781 20.855469 17.046875 20.859375 C 17.046875 20.875 17.042969 20.886719 17.039062 20.898438 C 17.039062 20.910156 17.035156 20.917969 17.03125 20.929688 C 17.027344 20.9375 17.027344 20.941406 17.023438 20.949219 C 17.023438 20.953125 17.019531 20.957031 17.019531 20.964844 C 17 21.007812 16.976562 21.042969 16.953125 21.074219 C 16.949219 21.082031 16.941406 21.089844 16.933594 21.097656 C 16.929688 21.105469 16.921875 21.113281 16.917969 21.117188 C 16.910156 21.125 16.902344 21.128906 16.898438 21.136719 C 16.894531 21.136719 16.894531 21.140625 16.894531 21.140625 C 16.890625 21.140625 16.890625 21.144531 16.886719 21.144531 C 16.886719 21.148438 16.882812 21.148438 16.878906 21.152344 C 16.867188 21.164062 16.855469 21.171875 16.84375 21.179688 C 16.839844 21.183594 16.832031 21.1875 16.828125 21.191406 C 16.820312 21.195312 16.816406 21.195312 16.8125 21.199219 C 16.792969 21.210938 16.777344 21.21875 16.765625 21.222656 C 16.757812 21.226562 16.753906 21.226562 16.753906 21.230469 C 16.75 21.230469 16.746094 21.230469 16.746094 21.230469 C 16.746094 21.230469 16.753906 21.226562 16.761719 21.21875 C 16.761719 21.214844 16.765625 21.214844 16.769531 21.210938 C 16.769531 21.210938 16.769531 21.207031 16.773438 21.207031 C 16.773438 21.207031 16.773438 21.203125 16.777344 21.203125 C 16.777344 21.199219 16.78125 21.195312 16.785156 21.191406 C 16.789062 21.1875 16.792969 21.1875 16.796875 21.183594 C 16.800781 21.175781 16.804688 21.171875 16.808594 21.167969 C 16.808594 21.164062 16.816406 21.160156 16.820312 21.15625 C 16.824219 21.144531 16.835938 21.132812 16.84375 21.121094 C 16.84375 21.117188 16.847656 21.117188 16.847656 21.113281 C 16.851562 21.109375 16.851562 21.109375 16.851562 21.109375 C 16.855469 21.105469 16.855469 21.105469 16.855469 21.101562 C 16.859375 21.097656 16.863281 21.089844 16.867188 21.082031 C 16.875 21.070312 16.882812 21.054688 16.890625 21.039062 C 16.90625 21.007812 16.917969 20.972656 16.929688 20.9375 C 16.929688 20.929688 16.929688 20.925781 16.929688 20.921875 C 16.933594 20.917969 16.933594 20.914062 16.933594 20.90625 C 16.933594 20.902344 16.9375 20.898438 16.9375 20.894531 C 16.9375 20.890625 16.9375 20.886719 16.9375 20.886719 C 16.9375 20.882812 16.9375 20.882812 16.9375 20.878906 C 16.9375 20.875 16.941406 20.867188 16.941406 20.863281 L 16.941406 20.855469 C 16.941406 20.855469 16.941406 20.851562 16.941406 20.847656 C 16.941406 20.84375 16.941406 20.839844 16.941406 20.835938 L 16.941406 20.824219 C 16.941406 20.824219 16.941406 20.820312 16.941406 20.820312 C 16.941406 20.8125 16.941406 20.808594 16.941406 20.800781 L 16.941406 20.789062 C 16.941406 20.789062 16.941406 20.785156 16.941406 20.789062 L 16.941406 20.773438 C 16.941406 20.773438 16.9375 20.769531 16.9375 20.765625 L 16.9375 20.761719 C 16.9375 20.75 16.933594 20.738281 16.929688 20.730469 C 16.929688 20.722656 16.925781 20.71875 16.925781 20.714844 C 16.925781 20.707031 16.921875 20.703125 16.921875 20.695312 C 16.910156 20.652344 16.890625 20.609375 16.875 20.566406 C 16.867188 20.542969 16.855469 20.519531 16.847656 20.5 C 16.839844 20.476562 16.828125 20.453125 16.820312 20.433594 C 16.8125 20.410156 16.800781 20.390625 16.792969 20.367188 C 16.789062 20.359375 16.785156 20.347656 16.777344 20.335938 C 16.773438 20.324219 16.769531 20.316406 16.765625 20.304688 C 16.761719 20.292969 16.757812 20.285156 16.75 20.273438 C 16.746094 20.261719 16.742188 20.253906 16.738281 20.242188 C 16.730469 20.222656 16.722656 20.203125 16.714844 20.183594 C 16.703125 20.164062 16.695312 20.148438 16.6875 20.128906 C 16.683594 20.121094 16.679688 20.109375 16.675781 20.101562 C 16.675781 20.09375 16.671875 20.085938 16.667969 20.074219 C 16.660156 20.058594 16.652344 20.042969 16.644531 20.027344 C 16.640625 20.011719 16.632812 19.996094 16.628906 19.984375 C 16.617188 19.953125 16.609375 19.929688 16.601562 19.910156 C 16.59375 19.890625 16.585938 19.875 16.582031 19.863281 C 16.578125 19.851562 16.578125 19.84375 16.578125 19.84375 C 16.578125 19.84375 16.582031 19.851562 16.589844 19.859375 C 16.597656 19.867188 16.609375 19.882812 16.621094 19.898438 C 16.636719 19.914062 16.652344 19.9375 16.671875 19.960938 C 16.671875 19.964844 16.675781 19.964844 16.679688 19.96875 C 16.679688 19.972656 16.679688 19.972656 16.679688 19.972656 L 16.683594 19.976562 L 16.683594 19.980469 C 16.691406 19.984375 16.695312 19.992188 16.699219 20 C 16.710938 20.011719 16.71875 20.027344 16.730469 20.042969 C 16.734375 20.050781 16.742188 20.058594 16.746094 20.066406 C 16.753906 20.074219 16.757812 20.082031 16.761719 20.089844 C 16.773438 20.109375 16.785156 20.125 16.796875 20.144531 C 16.800781 20.152344 16.808594 20.164062 16.8125 20.171875 C 16.820312 20.179688 16.824219 20.191406 16.832031 20.199219 C 16.84375 20.21875 16.855469 20.238281 16.867188 20.257812 C 16.875 20.28125 16.886719 20.300781 16.898438 20.320312 C 16.910156 20.34375 16.921875 20.363281 16.933594 20.386719 C 16.9375 20.398438 16.941406 20.410156 16.949219 20.421875 C 16.953125 20.429688 16.957031 20.441406 16.964844 20.453125 C 16.972656 20.476562 16.984375 20.5 16.992188 20.523438 C 17.011719 20.570312 17.027344 20.617188 17.039062 20.667969 C 17.039062 20.671875 17.042969 20.679688 17.042969 20.6875 C 17.046875 20.691406 17.046875 20.699219 17.046875 20.703125 C 17.050781 20.71875 17.050781 20.730469 17.054688 20.742188 L 17.054688 20.753906 C 17.054688 20.757812 17.054688 20.761719 17.054688 20.765625 L 17.054688 20.773438 C 17.054688 20.777344 17.054688 20.78125 17.054688 20.785156 Z M 16.453125 19.304688 C 16.453125 19.304688 15.726562 20.40625 15.726562 20.789062 C 15.726562 21.171875 16.050781 21.484375 16.453125 21.484375 C 16.851562 21.484375 17.175781 21.171875 17.175781 20.789062 C 17.175781 20.40625 16.453125 19.304688 16.453125 19.304688 " fill-opacity="1" fill-rule="nonzero"/></g></svg>